<?xml version="1.0" encoding="utf-8"?>
<!-- Generator: Adobe Illustrator 16.0.0, SVG Export Plug-In . SVG Version: 6.00 Build 0)  -->
<!DOCTYPE svg PUBLIC "-//W3C//DTD SVG 1.1//EN" "http://www.w3.org/Graphics/SVG/1.1/DTD/svg11.dtd">
<svg version="1.1" id="Layer_1" xmlns="http://www.w3.org/2000/svg" xmlns:xlink="http://www.w3.org/1999/xlink" x="0px" y="0px"
	 width="80px" height="80.037px" viewBox="0 0 80 80.037" enable-background="new 0 0 80 80.037" xml:space="preserve">
<g>
	<path fill-rule="evenodd" clip-rule="evenodd" fill="#CCBEE2" d="M78.614,73.384c-0.592,1.058-1.285,2.043-2.13,2.913
		c-1.146,1.182-2.491,2.072-4.008,2.708c-0.877,0.42-1.823,0.583-2.766,0.765c-0.129,0.076-0.283-0.003-0.413,0.064
		c-0.041,0.002-0.081,0.004-0.122,0.006c-0.143,0.108-0.31,0.075-0.47,0.079c-0.168-0.005-0.336,0.012-0.503-0.017
		c-0.178-0.035-0.357-0.021-0.536-0.021c-18.438,0-36.877,0-55.315,0c-0.179,0-0.358-0.012-0.536,0.019
		c-0.162,0.032-0.326,0.015-0.489,0.02c-0.15,0-0.304,0.034-0.449-0.035c-0.063-0.004-0.125-0.002-0.188-0.009
		c-0.137-0.052-0.287-0.015-0.425-0.063c-0.229,0.007-0.447-0.047-0.662-0.121c-0.216-0.104-0.439-0.172-0.682-0.159
		c-0.203-0.069-0.438-0.032-0.618-0.182c-0.253-0.094-0.505-0.188-0.758-0.281c-2.373-1.111-4.347-2.686-5.705-4.96
		c-1.048-1.755-1.651-3.646-1.681-5.704c0.074-0.132,0.038-0.276,0.038-0.414c0.002-18.634,0.002-37.268,0-55.903
		c0-0.138,0.033-0.281-0.035-0.415c0-0.281,0.001-0.563,0.001-0.845c0.014-0.024,0.016-0.048,0.006-0.074
		c-0.029-0.014-0.038-0.027-0.027-0.038c0.01-0.01,0.02-0.015,0.031-0.015c0.045-0.291,0.091-0.581,0.137-0.872
		C0.244,9.661,0.34,9.525,0.396,9.382C0.451,9.31,0.469,9.228,0.46,9.138c0.413-1.488,1.014-2.89,1.945-4.131
		c2.154-2.87,5.009-4.508,8.591-4.86c0.1-0.01,0.198-0.038,0.297-0.057c0.114-0.089,0.247-0.047,0.371-0.047
		c18.893-0.002,37.785-0.002,56.677,0c0.124,0,0.257-0.04,0.372,0.044c0.78,0.12,1.569,0.187,2.332,0.406
		c3.805,1.092,6.469,3.47,8.011,7.111c0.055,0.129,0.113,0.255,0.171,0.383c-0.006,0.09,0.025,0.167,0.078,0.237
		c0.344,0.344,0.336,0.78,0.321,1.218c0.045,0.212,0.09,0.424,0.135,0.636c0.063,0.219,0.157,0.434,0.089,0.67
		c-0.008,0.292,0.007,0.582,0.062,0.869c0.093,0.113,0.048,0.247,0.048,0.37c0.002,18.701,0.002,37.401,0,56.103
		c0,0.123,0.043,0.257-0.046,0.371c-0.109,1.157-0.273,2.305-0.678,3.401C79.046,72.377,78.822,72.878,78.614,73.384z"/>
	<path fill-rule="evenodd" clip-rule="evenodd" fill="#4D3175" d="M68.712,0.088c-0.281-0.001-0.563-0.003-0.843-0.003
		c-18.565,0-37.13,0-55.694,0c-0.294,0-0.588,0.003-0.882,0.005c0.128-0.12,0.289-0.086,0.438-0.086
		c18.847-0.001,37.695-0.001,56.542,0C68.423,0.004,68.583-0.029,68.712,0.088z"/>
	<path fill-rule="evenodd" clip-rule="evenodd" fill="#583D7F" d="M68.714,79.996c-19.142,0-38.282,0-57.423,0
		c-0.005-0.024-0.011-0.048-0.016-0.072c0.041-0.032,0.086-0.046,0.138-0.043c8.824-0.089,17.647-0.023,26.47-0.036
		c9.119-0.013,18.237-0.004,27.356,0c1.099,0,2.198-0.04,3.296,0.036c0.047-0.001,0.095,0.001,0.142,0.005
		C68.728,79.909,68.741,79.945,68.714,79.996z"/>
	<path fill-rule="evenodd" clip-rule="evenodd" fill="#5C4282" d="M9.603,79.69c0.241-0.068,0.454,0.109,0.69,0.077
		c0.009,0.013,0.019,0.025,0.028,0.037c-0.009,0.013-0.019,0.025-0.028,0.037C10.051,79.847,9.81,79.848,9.603,79.69z"/>
	<path fill-rule="evenodd" clip-rule="evenodd" fill="#5C4282" d="M8.303,79.35c0.208,0.054,0.442,0.019,0.618,0.182
		C8.697,79.532,8.468,79.548,8.303,79.35z"/>
	<path fill-rule="evenodd" clip-rule="evenodd" fill="#5C4282" d="M10.712,79.835c0.04,0.001,0.079,0.002,0.119,0.003
		c0.052,0.027,0.052,0.054,0,0.081c-0.18-0.017-0.372,0.049-0.537-0.077C10.432,79.777,10.572,79.795,10.712,79.835z"/>
	<path fill-rule="evenodd" clip-rule="evenodd" fill="#5C4282" d="M11.29,79.924c0,0.024,0.001,0.048,0.001,0.072
		c-0.137,0.021-0.289,0.114-0.384-0.077C11.036,79.862,11.163,79.854,11.29,79.924z"/>
	<path fill-rule="evenodd" clip-rule="evenodd" fill="#5D4383" d="M11.29,79.924c-0.127-0.001-0.255-0.003-0.382-0.005
		c-0.026,0-0.051,0-0.077,0c0-0.027,0-0.054,0-0.081c0.152,0.004,0.304,0.007,0.456,0.011c0.055,0.018,0.057,0.04,0.007,0.067
		L11.29,79.924z"/>
	<path fill-rule="evenodd" clip-rule="evenodd" fill="#5C4282" d="M68.714,79.996c0-0.024,0.001-0.048,0.002-0.071
		c0.126-0.071,0.254-0.062,0.382-0.006C69.001,80.101,68.843,79.977,68.714,79.996z"/>
	<path fill-rule="evenodd" clip-rule="evenodd" fill="#5D4383" d="M69.098,79.919c-0.128,0.002-0.255,0.004-0.382,0.006
		l-0.004-0.008c-0.051-0.028-0.049-0.05,0.008-0.066c0.151-0.004,0.304-0.008,0.455-0.011
		C69.149,79.866,69.124,79.893,69.098,79.919z"/>
	<path fill-rule="evenodd" clip-rule="evenodd" fill="#5D4383" d="M69.297,79.834c0.131-0.063,0.27-0.077,0.413-0.064
		C69.584,79.87,69.438,79.836,69.297,79.834z"/>
	<path fill-rule="evenodd" clip-rule="evenodd" fill="#573E7D" d="M0.083,10.905c0,18.897-0.001,37.794-0.002,56.692
		c0,0.218-0.007,0.435-0.011,0.652c-0.02,0.055-0.041,0.056-0.063,0.001c0-1.919,0-3.838,0-5.758c0-10.158,0-20.317,0-30.477
		c0-6.864,0-13.728,0.002-20.591C0.008,11.25-0.037,11.064,0.083,10.905z"/>
	<path fill-rule="evenodd" clip-rule="evenodd" fill="#573E7D" d="M0.396,9.382C0.367,9.531,0.338,9.68,0.31,9.828
		c-0.138-0.17-0.006-0.331,0.019-0.496c0.001-0.005,0.027-0.013,0.03-0.01C0.373,9.341,0.383,9.362,0.396,9.382z"/>
	<path fill-rule="evenodd" clip-rule="evenodd" fill="#573E7D" d="M0.173,10.7c0.01,0.019,0.009,0.037-0.004,0.053
		c-0.07-0.074-0.105-0.157-0.04-0.311C0.148,10.559,0.161,10.629,0.173,10.7z"/>
	<path fill-rule="evenodd" clip-rule="evenodd" fill="#52377A" d="M79.913,68.462c-0.002-7.702-0.004-15.404-0.005-23.105
		c-0.002-11.208-0.002-22.416-0.003-33.623c0-0.038,0.004-0.077,0.006-0.115c0.009-0.113,0.019-0.226,0.027-0.339
		c0.021,0,0.041,0,0.062,0.001c0,1.922,0,3.843,0,5.766c0,4.99,0,9.98,0,14.97c0,8.547,0,17.094,0,25.641
		c0,3.518-0.001,7.035-0.001,10.552c0,0.115,0.008,0.232-0.012,0.345c-0.01,0.061-0.047,0.017-0.059-0.017
		C79.919,68.513,79.917,68.486,79.913,68.462z"/>
	<path fill-rule="evenodd" clip-rule="evenodd" fill="#D0C3E6" d="M0.162,11.672c0.105,0.135,0.074,0.293,0.074,0.444
		c0.001,18.615,0.001,37.23,0,55.844c0,0.151,0.031,0.31-0.077,0.443c-0.008-0.166-0.022-0.331-0.022-0.497
		c0-18.579,0-37.159,0.001-55.738C0.138,12.003,0.153,11.838,0.162,11.672z"/>
	<path fill-rule="evenodd" clip-rule="evenodd" fill="#583F7E" d="M0.006,68.25c0.021,0,0.042,0,0.063-0.001
		c0,0.159,0,0.318,0,0.478c-0.021,0.001-0.042,0.002-0.063,0.003C0.006,68.569,0.006,68.41,0.006,68.25z"/>
	<path fill-rule="evenodd" clip-rule="evenodd" fill="#573E7D" d="M79.625,9.443c-0.106-0.406-0.214-0.812-0.321-1.218
		c0.211-0.091,0.25,0.102,0.31,0.21C79.796,8.764,79.778,9.105,79.625,9.443z"/>
	<path fill-rule="evenodd" clip-rule="evenodd" fill="#573E7D" d="M79.849,10.75c-0.029-0.224-0.06-0.447-0.089-0.67
		c0.004-0.012,0.006-0.024,0.013-0.035c0.006-0.01,0.016-0.018,0.023-0.027C79.883,10.256,79.994,10.494,79.849,10.75z"/>
	<path fill-rule="evenodd" clip-rule="evenodd" fill="#5C4283" d="M79.366,76.295c-0.041,0.03-0.07,0.067-0.096,0.064
		c-0.026-0.002-0.05-0.043-0.074-0.067c0.025-0.024,0.049-0.066,0.075-0.067C79.296,76.223,79.325,76.263,79.366,76.295z"/>
	<path fill-rule="evenodd" clip-rule="evenodd" fill="#D0C2E6" d="M11.296,0.62c-0.031-0.018-0.08-0.058-0.018-0.068
		c0.125-0.02,0.255-0.011,0.383-0.011c18.896,0,37.792,0,56.689,0.003c0.197,0,0.412-0.068,0.588,0.09
		c-0.153,0.093-0.324,0.059-0.487,0.059c-18.878,0.002-37.756,0.002-56.634,0C11.642,0.692,11.457,0.737,11.296,0.62z"/>
	<path fill-rule="evenodd" clip-rule="evenodd" fill="#8D7CAA" d="M11.296,0.62c3.479-0.001,6.959-0.002,10.438-0.002
		c15.376,0,30.753,0,46.129,0.001c0.358,0,0.717,0.01,1.074,0.016c0.003,0.02,0.005,0.041,0.006,0.061
		c-0.213,0.076-0.433,0.021-0.648,0.038c-18.86,0-37.721,0-56.582,0c-0.143-0.02-0.296,0.046-0.432-0.049
		C11.285,0.662,11.29,0.64,11.296,0.62z"/>
	<path fill-rule="evenodd" clip-rule="evenodd" fill="#8E7CAC" d="M68.72,79.851c-0.002,0.022-0.005,0.045-0.008,0.066
		c-6.179,0.001-12.358,0.002-18.538,0.002c-12.96-0.001-25.921-0.002-38.881-0.003c-0.002-0.022-0.005-0.045-0.007-0.067
		c0.158-0.007,0.315-0.013,0.473-0.02c0.138-0.047,0.279-0.023,0.419-0.023c18.55-0.002,37.1-0.002,55.649,0
		c0.14,0,0.282-0.024,0.419,0.025C68.405,79.837,68.562,79.844,68.72,79.851z"/>
	<path fill-rule="evenodd" clip-rule="evenodd" fill="#4F3378" d="M0.709,11.676c0.093,0.137,0.063,0.294,0.063,0.444
		c0.002,0.925,0.002,1.851,0.002,2.776c0.139,0.084,0.156,0.223,0.165,0.367c0.012,0.191,0.01,0.383,0.01,0.575
		c0,5.111,0,10.222,0,15.333c0,0.256-0.005,0.511-0.022,0.766c0.014,0.23,0.022,0.459,0.022,0.69c0,9.513,0.001,19.027-0.006,28.541
		c0,0.291,0.11,0.622-0.169,0.865c0,2.098-0.001,4.195-0.001,6.294c-0.022,0.038-0.044,0.038-0.065,0
		c-0.004-0.153-0.013-0.307-0.013-0.46C0.694,49.289,0.693,30.712,0.693,12.135C0.693,11.982,0.704,11.829,0.709,11.676z"/>
	<path fill-rule="evenodd" clip-rule="evenodd" fill="#52377A" d="M79.231,15.126c0-1.151,0-2.302,0.001-3.454
		c0.023-0.053,0.047-0.053,0.071,0c0.008,0.166,0.022,0.331,0.022,0.497c0,18.553-0.001,37.106-0.002,55.66
		c0,0.165-0.012,0.331-0.018,0.497c-0.111-0.146-0.073-0.318-0.073-0.48c-0.003-1.811-0.002-3.62-0.002-5.43
		c-0.14-0.084-0.157-0.223-0.165-0.367c-0.014-0.229-0.01-0.46-0.01-0.689c-0.001-9.524-0.001-19.049-0.001-28.574
		c0-0.281,0.002-0.563,0.022-0.843c-0.011-0.204-0.022-0.408-0.022-0.612c0-5.137-0.001-10.274,0.005-15.411
		C79.06,15.648,78.981,15.348,79.231,15.126z"/>
	<path fill-rule="evenodd" clip-rule="evenodd" fill="#D0C2E6" d="M68.247,79.831c-0.166,0.004-0.332,0.011-0.498,0.011
		c-18.484,0-36.968,0-55.452,0c-0.179,0-0.358-0.009-0.537-0.013c0.14-0.093,0.297-0.063,0.448-0.063
		c18.531-0.001,37.062-0.001,55.592,0C67.95,79.767,68.108,79.736,68.247,79.831z"/>
	<path fill-rule="evenodd" clip-rule="evenodd" fill="#5C4282" d="M11.829,79.228c0,0.023,0,0.047,0,0.069
		c-1.525-0.024-2.996-0.301-4.376-0.976c-0.074-0.066-0.148-0.133-0.225-0.203c0.119-0.151,0.292-0.137,0.368-0.032
		c0.185,0.255,0.513,0.25,0.718,0.449c0.051,0.05,0.11,0.063,0.176,0.049c0.531-0.12,1.002,0.091,1.461,0.298
		c0.138,0.063,0.234-0.04,0.361,0.018c0.218,0.1,0.495,0.012,0.692,0.224c0.046,0.05,0.222,0.045,0.289-0.003
		C11.524,78.952,11.668,79.106,11.829,79.228z"/>
	<path fill-rule="evenodd" clip-rule="evenodd" fill="#5C4282" d="M4.536,76.311c0.481,0.022,0.735,0.422,1.072,0.67
		c0.318,0.235,0.748,0.34,0.927,0.761c0.048,0.113,0.212,0.026,0.322,0.039c0.108,0.012,0.21,0.056,0.222,0.172
		c0.01,0.096-0.087,0.108-0.163,0.124c-0.875-0.414-1.671-0.946-2.374-1.614C4.53,76.412,4.478,76.363,4.536,76.311z"/>
	<path fill-rule="evenodd" clip-rule="evenodd" fill="#5A4180" d="M4.536,76.311c0.02,0.05,0.049,0.099,0.006,0.151
		c-0.451-0.354-0.843-0.767-1.193-1.219c0.417,0.223,0.648,0.655,1.033,0.914C4.433,76.209,4.484,76.26,4.536,76.311z"/>
	<path fill-rule="evenodd" clip-rule="evenodd" fill="#5A4180" d="M0.708,68.326c0.022,0,0.043,0,0.065,0
		c0.107,0.306,0.126,0.612,0.007,0.92C0.717,68.942,0.685,68.637,0.708,68.326z"/>
	<path fill-rule="evenodd" clip-rule="evenodd" fill="#5A4180" d="M0.836,69.586c0.007-0.037,0.011-0.074,0.024-0.108
		c0.004-0.012,0.031-0.014,0.048-0.021c-0.006,0.238,0.188,0.471,0.019,0.713C0.852,69.982,0.824,69.787,0.836,69.586z"/>
	<path fill-rule="evenodd" clip-rule="evenodd" fill="#583F7E" d="M68.329,0.707c0.205-0.004,0.41-0.008,0.615-0.012
		c0.132,0.017,0.272-0.012,0.394,0.069c-0.336,0.002-0.672,0.004-1.008,0.006C68.276,0.75,68.276,0.729,68.329,0.707z"/>
	<path fill-rule="evenodd" clip-rule="evenodd" fill="#583F7E" d="M11.282,0.683c0.131,0.008,0.263,0.017,0.395,0.025
		c0.054,0.021,0.053,0.042-0.001,0.062c-0.336-0.002-0.671-0.003-1.007-0.005C10.864,0.669,11.077,0.706,11.282,0.683z"/>
	<path fill-rule="evenodd" clip-rule="evenodd" fill="#5A4180" d="M1.223,71.347c0.004-0.013,0.004-0.028,0.013-0.035
		c0.016-0.014,0.037-0.021,0.055-0.032c0.027,0.194,0.19,0.363,0.102,0.578C1.304,71.697,1.241,71.529,1.223,71.347z"/>
	<path fill-rule="evenodd" clip-rule="evenodd" fill="#5A4180" d="M76.245,75.65c0.106-0.221,0.267-0.386,0.493-0.485
		C76.594,75.349,76.488,75.569,76.245,75.65z"/>
	<path fill-rule="evenodd" clip-rule="evenodd" fill="#5A4180" d="M79.237,69.25c-0.154-0.23-0.05-0.478,0.006-0.72
		c0,0.222,0,0.442,0,0.664C79.251,69.214,79.25,69.232,79.237,69.25z"/>
	<path fill-rule="evenodd" clip-rule="evenodd" fill="#583F7E" d="M79.303,11.672c-0.023,0-0.048,0-0.071,0
		c0.002-0.292,0.005-0.584,0.007-0.876C79.332,11.083,79.323,11.377,79.303,11.672z"/>
	<path fill-rule="evenodd" clip-rule="evenodd" fill="#5A4180" d="M78.008,73.242c-0.021-0.2,0.03-0.364,0.23-0.452
		C78.202,72.961,78.12,73.109,78.008,73.242z"/>
	<path fill-rule="evenodd" clip-rule="evenodd" fill="#5A4180" d="M2.005,73.234c0.205,0.058,0.248,0.205,0.221,0.393
		C2.121,73.515,2.051,73.381,2.005,73.234z"/>
	<path fill-rule="evenodd" clip-rule="evenodd" fill="#5A4180" d="M1.461,72.019c0.184,0.073,0.236,0.199,0.152,0.38
		C1.528,72.285,1.479,72.158,1.461,72.019z"/>
	<path fill-rule="evenodd" clip-rule="evenodd" fill="#583F7E" d="M69.946,0.845c-0.207-0.021-0.43,0.068-0.617-0.087
		C69.539,0.754,69.749,0.754,69.946,0.845z"/>
	<path fill-rule="evenodd" clip-rule="evenodd" fill="#5A4180" d="M77.028,74.787c-0.069-0.212,0.117-0.235,0.23-0.313
		C77.205,74.596,77.134,74.704,77.028,74.787z"/>
	<path fill-rule="evenodd" clip-rule="evenodd" fill="#5A4180" d="M77.794,73.635c-0.084-0.151-0.036-0.229,0.133-0.24
		C77.914,73.492,77.864,73.568,77.794,73.635z"/>
	<path fill-rule="evenodd" clip-rule="evenodd" fill="#5A4180" d="M2.817,74.552c0.12,0.073,0.305,0.097,0.237,0.313
		C2.945,74.783,2.875,74.672,2.817,74.552z"/>
	<path fill-rule="evenodd" clip-rule="evenodd" fill="#583F7E" d="M10.677,0.759c-0.165,0.145-0.361,0.072-0.545,0.083
		C10.303,0.748,10.49,0.756,10.677,0.759z"/>
	<path fill-rule="evenodd" clip-rule="evenodd" fill="#5A4180" d="M78.622,71.86c-0.07-0.108-0.101-0.202,0.079-0.222
		C78.703,71.723,78.679,71.797,78.622,71.86z"/>
	<path fill-rule="evenodd" clip-rule="evenodd" fill="#5A4180" d="M78.474,72.247c-0.084-0.113-0.097-0.2,0.081-0.213
		C78.554,72.115,78.533,72.188,78.474,72.247z"/>
	<path fill-rule="evenodd" clip-rule="evenodd" fill="#583F7E" d="M79.167,10.213c-0.13-0.13-0.076-0.296-0.088-0.449
		C79.174,9.9,79.167,10.057,79.167,10.213z"/>
	<path fill-rule="evenodd" clip-rule="evenodd" fill="#583F7E" d="M79.234,10.675c-0.118-0.142-0.069-0.31-0.073-0.47
		C79.244,10.353,79.241,10.513,79.234,10.675z"/>
	<path fill-rule="evenodd" clip-rule="evenodd" fill="#583F7E" d="M70.339,0.92c-0.137-0.001-0.28,0.031-0.396-0.076
		C70.08,0.845,70.217,0.839,70.339,0.92z"/>
	<path fill-rule="evenodd" clip-rule="evenodd" fill="#583F7E" d="M10.139,0.836c-0.122,0.122-0.275,0.08-0.42,0.08
		C9.848,0.83,9.995,0.84,10.139,0.836z"/>
	<path fill-rule="evenodd" clip-rule="evenodd" fill="#5D4383" d="M10.712,79.835c-0.14,0.002-0.279,0.005-0.418,0.007
		c0-0.024,0-0.049,0-0.074C10.438,79.755,10.58,79.768,10.712,79.835z"/>
	<path fill-rule="evenodd" clip-rule="evenodd" fill="#513B74" d="M23.499,62.568c0.004-0.188,0.008-0.378,0.012-0.567
		c0.042-0.029,0.088-0.052,0.138-0.067c2.58,0.131,5.161,0.045,7.741,0.056c3.784,0.017,7.569,0.003,11.354,0.007
		c0.487,0,0.971-0.005,1.444-0.13c0.535-0.143,1.09-0.086,1.635-0.138c2.236-0.215,4.401-0.675,6.463-1.605
		c1.333-0.602,2.533-1.388,3.556-2.416c1.211-1.22,2-2.698,2.423-4.367c0.053-0.209,0.071-0.437,0.323-0.52
		c0.093,0.113,0.068,0.236,0.039,0.364c-0.283,1.238-0.662,2.446-1.348,3.524c-0.709,1.116-1.592,2.08-2.688,2.843
		c-2.197,1.528-4.654,2.343-7.28,2.725c-0.26,0.038-0.537,0.006-0.781,0.14C38.853,62.749,31.175,62.485,23.499,62.568z"/>
	<path fill-rule="evenodd" clip-rule="evenodd" fill="#5C4282" d="M75.81,75.59c-0.021,0.017-0.045,0.05-0.076,0.059
		c-0.043,0.013-0.075-0.022-0.062-0.063c0.01-0.03,0.044-0.063,0.074-0.073C75.789,75.499,75.813,75.531,75.81,75.59z"/>
	<path fill-rule="evenodd" clip-rule="evenodd" fill="#5C4282" d="M72.199,75.653c-0.017-0.021-0.05-0.045-0.059-0.076
		c-0.013-0.043,0.022-0.075,0.063-0.062c0.03,0.01,0.063,0.044,0.072,0.073C72.29,75.632,72.257,75.656,72.199,75.653z"/>
	<path fill-rule="evenodd" clip-rule="evenodd" fill="#5C4282" d="M72.228,74.795c0.03,0.041,0.068,0.069,0.066,0.096
		c-0.003,0.026-0.043,0.05-0.066,0.074c-0.024-0.024-0.066-0.048-0.069-0.074C72.157,74.865,72.196,74.837,72.228,74.795z"/>
	<path fill-rule="evenodd" clip-rule="evenodd" fill="#5C4282" d="M68.059,74.892c-0.041,0.03-0.069,0.069-0.095,0.067
		c-0.025-0.001-0.066-0.045-0.066-0.069c0.001-0.024,0.042-0.066,0.067-0.067C67.992,74.82,68.019,74.859,68.059,74.892z"/>
	<path fill-rule="evenodd" clip-rule="evenodd" fill="#5C4282" d="M67.993,75.652c-0.058,0.002-0.088-0.024-0.074-0.066
		c0.01-0.029,0.043-0.063,0.073-0.071c0.042-0.014,0.074,0.021,0.062,0.063C68.044,75.608,68.01,75.632,67.993,75.652z"/>
	<path fill-rule="evenodd" clip-rule="evenodd" fill="#5C4282" d="M73.657,74.953c-0.032-0.013-0.07-0.021-0.069-0.028
		c0.002-0.03,0.014-0.061,0.022-0.091c0.021,0.008,0.056,0.014,0.058,0.023C73.671,74.888,73.662,74.919,73.657,74.953z"/>
	<path fill-rule="evenodd" clip-rule="evenodd" fill="#5A4180" d="M79.162,69.796c-0.083-0.104-0.11-0.217-0.029-0.409
		C79.145,69.565,79.153,69.681,79.162,69.796L79.162,69.796z"/>
	<path fill-rule="evenodd" clip-rule="evenodd" fill="#5C4282" d="M65.898,74.823c-0.013,0.032-0.021,0.069-0.028,0.069
		c-0.03-0.002-0.061-0.015-0.091-0.023c0.008-0.02,0.014-0.056,0.023-0.057C65.833,74.808,65.864,74.818,65.898,74.823z"/>
	<path fill-rule="evenodd" clip-rule="evenodd" fill="#5C4282" d="M66.625,74.903c-0.027,0.016-0.052,0.033-0.079,0.041
		c-0.006,0.002-0.036-0.044-0.03-0.052c0.016-0.024,0.043-0.04,0.066-0.059C66.594,74.853,66.606,74.871,66.625,74.903z"/>
	<path fill-rule="evenodd" clip-rule="evenodd" fill="#5C4282" d="M73.566,75.593c0.021-0.031,0.033-0.05,0.045-0.068
		c0.022,0.021,0.05,0.036,0.065,0.061c0.005,0.009-0.027,0.054-0.032,0.052C73.617,75.628,73.593,75.609,73.566,75.593z"/>
	<path fill-rule="evenodd" clip-rule="evenodd" fill="#5C4282" d="M72.96,74.823c-0.013,0.032-0.021,0.069-0.028,0.069
		c-0.03-0.002-0.061-0.015-0.091-0.023c0.008-0.02,0.014-0.056,0.023-0.057C72.895,74.808,72.926,74.818,72.96,74.823z"/>
	<path fill-rule="evenodd" clip-rule="evenodd" fill="#5C4282" d="M66.625,75.57c-0.021,0.031-0.032,0.05-0.045,0.068
		c-0.022-0.02-0.05-0.036-0.064-0.061c-0.006-0.008,0.026-0.053,0.031-0.052C66.575,75.536,66.598,75.555,66.625,75.57z"/>
	<path fill-rule="evenodd" clip-rule="evenodd" fill="#5C4282" d="M74.418,74.883c-0.034,0.005-0.066,0.014-0.096,0.009
		c-0.01-0.001-0.015-0.037-0.022-0.058c0.031-0.008,0.061-0.02,0.092-0.021C74.398,74.813,74.407,74.851,74.418,74.883z"/>
	<path fill-rule="evenodd" clip-rule="evenodd" fill="#5C4282" d="M67.357,74.824c-0.014,0.032-0.023,0.069-0.03,0.068
		c-0.03-0.002-0.061-0.015-0.091-0.024c0.009-0.02,0.016-0.055,0.025-0.057C67.292,74.809,67.323,74.819,67.357,74.824z"/>
	<path fill-rule="evenodd" clip-rule="evenodd" fill="#5C4282" d="M67.291,75.667c-0.025-0.044-0.057-0.075-0.051-0.096
		c0.005-0.021,0.046-0.036,0.074-0.044c0.009-0.002,0.041,0.036,0.038,0.048C67.343,75.603,67.32,75.625,67.291,75.667z"/>
	<path fill-rule="evenodd" clip-rule="evenodd" fill="#5C4282" d="M75.13,75.595c-0.046,0.021-0.08,0.048-0.099,0.04
		c-0.021-0.009-0.032-0.051-0.036-0.079c-0.001-0.01,0.041-0.038,0.052-0.033C75.074,75.535,75.093,75.561,75.13,75.595z"/>
	<path fill-rule="evenodd" clip-rule="evenodd" fill="#5C4282" d="M65.165,75.5c0.016,0.048,0.041,0.085,0.031,0.102
		c-0.012,0.021-0.054,0.028-0.083,0.03c-0.008,0-0.032-0.044-0.026-0.056C65.1,75.552,65.127,75.534,65.165,75.5z"/>
	<path fill-rule="evenodd" clip-rule="evenodd" fill="#5C4282" d="M72.979,75.56c-0.033,0.037-0.054,0.078-0.073,0.077
		c-0.023-0.001-0.051-0.033-0.067-0.058c-0.004-0.007,0.022-0.05,0.036-0.05C72.902,75.528,72.931,75.544,72.979,75.56z"/>
	<g>
		<path fill-rule="evenodd" clip-rule="evenodd" fill="#583F7E" d="M79.2,68.837c0.002-0.037,0.003-0.073-0.002-0.105
			C79.204,68.763,79.203,68.799,79.2,68.837c-0.003,0.041-0.007,0.084-0.01,0.128c-0.003,0.075,0.005,0.154,0.053,0.229
			c0.086-0.285,0.078-0.576,0.063-0.868c-0.068-0.133-0.034-0.275-0.035-0.413c-0.003-1.809,0.001-3.618-0.003-5.427
			c-0.008-0.038-0.021-0.065-0.037-0.087c0-10.153,0-20.307,0-30.46c0-5.597,0-11.194,0-16.791c0.015-0.026,0.028-0.057,0.038-0.093
			c0.002-1.125,0-2.252,0.001-3.378c-0.018-0.293,0.036-0.589-0.031-0.881c-0.002-0.041-0.003-0.081-0.005-0.122
			c-0.1-0.145,0.012-0.322-0.072-0.469c-0.112-0.131,0.017-0.309-0.083-0.442c-0.022-0.071-0.055-0.142-0.064-0.215
			c-0.083-0.578-0.223-1.137-0.524-1.646c-0.238-0.896-0.75-1.651-1.253-2.41c-0.864-1.302-2.017-2.324-3.318-3.14
			C72.828,1.669,71.62,1.18,70.339,0.92c-0.121-0.084-0.278,0.021-0.396-0.076l0.003,0.001c-0.195-0.104-0.426,0.041-0.617-0.087
			l0.009,0.006c-0.345-0.04-0.683-0.139-1.034-0.108c-18.868,0-37.736,0-56.605,0c-0.343,0.036-0.686,0.078-1.029,0.109l0.008-0.006
			C10.51,0.879,10.305,0.75,10.134,0.84C10.01,0.942,9.848,0.843,9.718,0.916C8.829,1.03,8.006,1.375,7.206,1.739
			C5.564,2.486,4.183,3.592,3.08,5.024C2.475,5.809,1.916,6.627,1.607,7.586c-0.606,1.296-0.87,2.667-0.898,4.09
			c0.061,1.052,0.008,2.105,0.028,3.158c0.016,0.02,0.031,0.039,0.047,0.058c-0.003,0.001-0.006,0.002-0.009,0.004
			c0,5.681,0,11.362,0,17.043l0,0l0,0c0,10.028,0,20.056,0,30.084c-0.021,0.021-0.036,0.057-0.039,0.111c0,2.037,0,4.074,0,6.111
			c0.027,0.333,0.078,0.665,0.044,1c-0.011,0.118-0.015,0.234,0.056,0.34c0.028,0.006,0.039-0.047,0.044-0.032
			c0.005,0.013,0.008,0.018,0.009,0.019c0.001-0.011,0.003,0.002,0,0c0,0.003-0.001,0.008-0.001,0.016
			c-0.008,0.195,0.081,0.385,0.039,0.582c0.041,0.406,0.135,0.8,0.296,1.177c0.112,0.151,0.154,0.326,0.17,0.511
			c0.023,0.054,0.045,0.107,0.068,0.161c0.099,0.107,0.156,0.231,0.152,0.38c0.088,0.299,0.209,0.582,0.392,0.836
			c0.138,0.095,0.178,0.245,0.221,0.393c0.172,0.324,0.336,0.654,0.591,0.925c0.098,0.09,0.207,0.172,0.237,0.313
			c0.046,0.167,0.223,0.232,0.295,0.379c0.271,0.258,0.526,0.531,0.796,0.79c0.071,0.069,0.134,0.156,0.229,0.185
			c0.005,0.075,0.08,0.107,0.136,0.151c0.233,0.061,0.378,0.251,0.565,0.378c0.591,0.403,1.116,0.905,1.783,1.195
			c0.046,0.02,0.058,0.081,0.058,0.134c0.16,0.124,0.337,0.207,0.536,0.245c0.092,0.024-0.116-0.285,0.121-0.106
			c0.149,0.112,0.306,0.207,0.477,0.294c0.385,0.196,0.809,0.153,1.202,0.284c0.894,0.298,1.825,0.407,2.76,0.474
			c18.58,0,37.162,0,55.743,0.001c0.165,0,0.332-0.027,0.495,0.025c2.5-0.036,4.726-0.85,6.7-2.369
			c0.238-0.185,0.51-0.34,0.667-0.615c0.181-0.246,0.535-0.327,0.628-0.658c0.162-0.163,0.32-0.332,0.493-0.485
			c0.058-0.156,0.251-0.208,0.29-0.378c0.028-0.141,0.143-0.217,0.23-0.313c0.179-0.279,0.417-0.521,0.536-0.839
			c0.011-0.099,0.055-0.179,0.133-0.24c0.027-0.051,0.054-0.102,0.081-0.152c0.048-0.166,0.114-0.322,0.23-0.452
			c0.118-0.164,0.193-0.347,0.235-0.543c0.003-0.08-0.022-0.171,0.081-0.213c0.022-0.059,0.045-0.116,0.066-0.174
			c0.001-0.083,0.002-0.166,0.079-0.222c0.245-0.592,0.405-1.204,0.461-1.843c0,0,0,0,0-0.001v0.001
			c-0.012-0.014-0.021-0.028-0.028-0.043c0.007,0.015,0.017,0.029,0.028,0.042c0.076-0.175,0.089-0.357,0.075-0.545
			c-0.05-0.095-0.053-0.192-0.047-0.285C79.192,68.921,79.197,68.877,79.2,68.837z M24.187,19.311c6.874-0.001,13.748,0,20.623,0
			c0.541-0.093,1.079,0.189,1.619,0.003c0.03-0.01,0.027-0.001-0.016,0.007c-0.044,0.008-0.055,0.044-0.054,0.083
			c0.328,0.279,0.702,0.287,1.096,0.182c0.025-0.029,0.052-0.058,0.073-0.089c0.023-0.033-0.01-0.063-0.003-0.096
			c0.071,0.03,0.045,0.063,0.005,0.101c-0.018,0.017-0.02,0.044-0.015,0.07c0.309,0.287,0.717,0.225,1.084,0.308
			c0.437-0.077,0.837,0.027,1.213,0.247c0.15,0.233,0.393,0.256,0.636,0.276c0.094-0.014,0.193-0.06,0.268,0.042
			c0.077,0.101,0.181,0.159,0.307,0.179c0.19-0.001,0.366,0.037,0.498,0.191c0.051,0.041,0.106,0.074,0.167,0.1
			c0.057,0.024,0.111,0.053,0.164,0.082c0.056,0.035,0.113,0.063,0.178,0.078c0.147,0.006,0.258,0.074,0.336,0.196
			c0.049,0.05,0.106,0.088,0.173,0.114c0.178,0.045,0.348,0.104,0.433,0.288c0.068,0.085,0.154,0.147,0.257,0.186
			c0.593,0.263,1.047,0.681,1.389,1.228c0.048,0.091,0.108,0.173,0.185,0.243c0.061,0.051,0.115,0.107,0.162,0.169
			c0.029,0.039,0.062,0.075,0.1,0.105c0.104,0.06,0.157,0.153,0.177,0.268c0.037,0.157,0.11,0.294,0.234,0.401
			c0.271,0.234,0.448,0.515,0.442,0.887c0.034,0.199,0.088,0.387,0.271,0.507c0.215,0.253,0.216,0.556,0.207,0.862
			c0.038,0.258,0.104,0.509,0.18,0.758c0.047,0.117,0.091,0.235,0.094,0.363c0.003,0.038,0.007,0.076,0.018,0.113
			c0.107,0.438,0.199,0.88,0.153,1.337c-0.006,0.039-0.008,0.078-0.002,0.117c0.049,0.189,0.007,0.374-0.023,0.558
			c-0.017,0.205-0.011,0.411-0.033,0.615c0.061,0.276,0.067,0.551-0.021,0.823c-0.006,0.039-0.008,0.078-0.003,0.118
			c0.037,0.17-0.045,0.324-0.064,0.486c-0.002,0.037-0.001,0.075,0.006,0.112c0.005,0.114-0.003,0.228,0.015,0.341
			c0.004,0.015,0.009,0.029,0.016,0.042c-0.102,0.263-0.167,0.536-0.223,0.809c-0.185,0.898-0.575,1.707-1.074,2.464
			c-0.899,1.365-2.063,2.446-3.508,3.22c-0.196,0.105-0.429,0.194-0.437,0.479c0.083,0.191,0.269,0.217,0.438,0.27
			c2.62,0.821,4.514,2.467,5.663,4.969c0.588,1.281,0.906,2.631,1.038,4.022c0.071,0.744,0.125,1.491,0.049,2.252
			c-0.067,0.672-0.185,1.338-0.233,2.011c0.029,0.136,0.067,0.263,0.039,0.412c-0.403,2.128-1.41,3.929-2.994,5.39
			c-1.253,1.156-2.735,1.947-4.335,2.531c-1.384,0.505-2.807,0.839-4.266,1.033c-0.131,0.018-0.284,0.01-0.338,0.146
			c-0.03-0.018-0.06-0.038-0.089-0.061c-0.178-0.016-0.356-0.017-0.536-0.002c-0.929,0.073-1.857,0.138-2.791,0.138
			c-6.251-0.002-12.502-0.001-18.753,0c-0.253,0-0.507-0.01-0.761,0.019c0.048-0.127,0.02-0.274,0.026-0.413
			c0.039-0.292,0.03-0.587,0.03-0.881c0-13.582,0-27.164,0-40.745c0-0.218,0.003-0.435-0.005-0.652
			c-0.005-0.14-0.003-0.283-0.096-0.403c-0.011-0.015-0.024-0.026-0.037-0.036C23.751,19.309,23.969,19.311,24.187,19.311z
			 M79.119,69.7c0.002,0.019,0.007,0.035,0.014,0.052C79.125,69.735,79.121,69.719,79.119,69.7z"/>
		<polygon fill-rule="evenodd" clip-rule="evenodd" fill="#583F7E" points="79.161,10.205 79.162,10.206 79.167,10.213 		"/>
		<polygon fill-rule="evenodd" clip-rule="evenodd" fill="#583F7E" points="10.131,0.841 10.134,0.84 10.139,0.836 		"/>
		<path fill-rule="evenodd" clip-rule="evenodd" fill="#583F7E" d="M67.687,79.23c-18.619-0.003-37.239-0.003-55.858-0.003
			c-0.009,0-0.019,0.008-0.027,0.023c-0.009,0.016,0,0.031,0.027,0.046c0.153,0.006,0.307,0.015,0.46,0.015
			c18.5,0.001,37.001,0.001,55.502,0c0.153,0,0.306-0.012,0.459-0.019C68.073,79.182,67.875,79.23,67.687,79.23z"/>
	</g>
	<path fill-rule="evenodd" clip-rule="evenodd" fill="#583F7E" d="M66.777,14.363c-0.016,0.152-0.053,0.277-0.214,0.28
		c-0.141,0.002-0.198-0.109-0.203-0.229c-0.007-0.137,0.047-0.258,0.206-0.264C66.711,14.146,66.742,14.269,66.777,14.363z"/>
	<path fill-rule="evenodd" clip-rule="evenodd" fill="#583F7E" d="M73.841,14.384c-0.021,0.135-0.061,0.25-0.198,0.259
		c-0.162,0.01-0.22-0.113-0.223-0.249c-0.002-0.12,0.054-0.233,0.19-0.244C73.778,14.138,73.81,14.272,73.841,14.384z"/>
	<path fill-rule="evenodd" clip-rule="evenodd" fill="#583F7E" d="M65.771,14.253c0.008-0.089,0.054-0.106,0.107-0.106
		c0.054,0,0.104,0.021,0.11,0.081c0.007,0.079-0.043,0.119-0.116,0.099C65.831,14.315,65.797,14.273,65.771,14.253z"/>
	<path fill-rule="evenodd" clip-rule="evenodd" fill="#583F7E" d="M74.418,14.24c-0.023,0.071-0.077,0.099-0.146,0.088
		c-0.06-0.01-0.085-0.055-0.066-0.112c0.018-0.055,0.064-0.076,0.12-0.071C74.38,14.15,74.418,14.177,74.418,14.24z"/>
	<path fill-rule="evenodd" clip-rule="evenodd" fill="#523879" d="M11.676,0.771c0-0.021,0-0.042,0.001-0.062
		c0.153-0.005,0.307-0.014,0.459-0.014c18.59-0.001,37.181-0.001,55.771,0c0.14,0,0.28,0.008,0.421,0.013
		C68.33,0.729,68.33,0.75,68.33,0.771C49.445,0.771,30.561,0.771,11.676,0.771z"/>
	<path fill-rule="evenodd" clip-rule="evenodd" fill="#583F7E" d="M8.798,6.803C8.781,6.879,8.724,6.899,8.657,6.892
		c-0.054-0.006-0.096-0.044-0.09-0.1c0.008-0.079,0.072-0.098,0.139-0.09C8.758,6.708,8.793,6.745,8.798,6.803z"/>
	<path fill-rule="evenodd" clip-rule="evenodd" fill="#583F7E" d="M37.74,6.787c-0.005,0.063-0.039,0.099-0.093,0.105
		c-0.067,0.008-0.131-0.011-0.139-0.09c-0.006-0.056,0.037-0.093,0.091-0.1C37.667,6.694,37.722,6.716,37.74,6.787z"/>
	<path fill-rule="evenodd" clip-rule="evenodd" fill="#583F7E" d="M50.991,6.957c-0.018,0.056-0.018,0.135-0.102,0.124
		c-0.067-0.009-0.093-0.074-0.096-0.137c-0.003-0.056,0.037-0.087,0.09-0.093C50.96,6.842,50.996,6.88,50.991,6.957z"/>
	<path fill-rule="evenodd" clip-rule="evenodd" fill="#583F7E" d="M45.547,6.851c0.07,0.015,0.109,0.054,0.088,0.127
		c-0.018,0.059-0.049,0.126-0.122,0.101c-0.032-0.011-0.057-0.075-0.067-0.118C45.429,6.886,45.47,6.848,45.547,6.851z"/>
	<path fill-rule="evenodd" clip-rule="evenodd" fill="#583F7E" d="M43.841,6.849c0.082,0.014,0.104,0.068,0.08,0.132
		c-0.015,0.04-0.052,0.096-0.083,0.099c-0.072,0.006-0.1-0.061-0.105-0.122C43.726,6.882,43.775,6.852,43.841,6.849z"/>
	<path fill-rule="evenodd" clip-rule="evenodd" fill="#583F7E" d="M38.469,7.086c-0.073-0.02-0.084-0.081-0.089-0.141
		c-0.005-0.056,0.027-0.092,0.083-0.095c0.072-0.003,0.119,0.033,0.112,0.107C38.57,7.02,38.542,7.075,38.469,7.086z"/>
	<path fill-rule="evenodd" clip-rule="evenodd" fill="#583F7E" d="M36.77,6.851c0.076,0.003,0.112,0.046,0.091,0.118
		c-0.013,0.042-0.041,0.103-0.073,0.111c-0.076,0.02-0.102-0.051-0.115-0.11C36.654,6.895,36.698,6.859,36.77,6.851z"/>
	<path fill-rule="evenodd" clip-rule="evenodd" fill="#583F7E" d="M31.511,6.979c-0.024,0.056-0.055,0.129-0.123,0.097
		c-0.039-0.019-0.061-0.099-0.067-0.153c-0.006-0.06,0.049-0.079,0.102-0.071C31.494,6.862,31.528,6.904,31.511,6.979z"/>
	<path fill-rule="evenodd" clip-rule="evenodd" fill="#583F7E" d="M29.801,6.966c-0.018,0.056-0.026,0.133-0.108,0.114
		C29.63,7.066,29.605,7,29.606,6.937c0.001-0.059,0.046-0.083,0.098-0.085C29.781,6.849,29.813,6.89,29.801,6.966z"/>
	<path fill-rule="evenodd" clip-rule="evenodd" fill="#583F7E" d="M16.697,6.964c-0.02,0.057-0.037,0.128-0.114,0.116
		c-0.07-0.011-0.08-0.083-0.083-0.143c-0.003-0.058,0.037-0.087,0.091-0.087C16.665,6.85,16.703,6.888,16.697,6.964z"/>
	<path fill-rule="evenodd" clip-rule="evenodd" fill="#583F7E" d="M14.987,6.95c-0.014,0.058-0.016,0.134-0.096,0.13
		c-0.07-0.002-0.096-0.067-0.102-0.13c-0.005-0.055,0.03-0.09,0.083-0.099C14.946,6.84,14.987,6.873,14.987,6.95z"/>
	<path fill-rule="evenodd" clip-rule="evenodd" fill="#583F7E" d="M9.639,6.944c-0.012,0.063-0.032,0.129-0.1,0.137
		C9.457,7.09,9.45,7.013,9.44,6.956C9.431,6.902,9.45,6.857,9.512,6.851C9.58,6.845,9.628,6.871,9.639,6.944z"/>
	<path fill-rule="evenodd" clip-rule="evenodd" fill="#583F7E" d="M7.837,7.085C7.762,7.076,7.738,7.021,7.729,6.959
		C7.72,6.905,7.748,6.863,7.802,6.854C7.87,6.841,7.925,6.863,7.924,6.942C7.922,7.002,7.908,7.063,7.837,7.085z"/>
	<path fill-rule="evenodd" clip-rule="evenodd" fill="#583F7E" d="M52.699,6.979c-0.024,0.056-0.055,0.129-0.123,0.097
		c-0.039-0.019-0.062-0.099-0.066-0.153c-0.006-0.06,0.049-0.079,0.102-0.071C52.682,6.862,52.716,6.904,52.699,6.979z"/>
	<path fill-rule="evenodd" clip-rule="evenodd" fill="#583F7E" d="M2.476,6.87c0.062-0.005,0.099,0.022,0.097,0.078
		C2.569,7.01,2.542,7.069,2.473,7.079c-0.02,0.002-0.061-0.038-0.067-0.065C2.391,6.951,2.411,6.895,2.476,6.87z"/>
	<path fill-rule="evenodd" clip-rule="evenodd" fill="#583F7E" d="M35.478,6.547c0.112,0.019,0.153,0.063,0.15,0.13
		c-0.001,0.021-0.047,0.057-0.07,0.056c-0.066-0.004-0.114-0.045-0.111-0.117C35.449,6.584,35.475,6.554,35.478,6.547z"/>
	<path fill-rule="evenodd" clip-rule="evenodd" fill="#583F7E" d="M46.785,6.732c-0.082,0.005-0.125-0.021-0.104-0.079
		c0.014-0.039,0.058-0.08,0.097-0.092c0.053-0.017,0.099,0.023,0.082,0.079C46.849,6.68,46.804,6.71,46.785,6.732z"/>
	<path fill-rule="evenodd" clip-rule="evenodd" fill="#FEFEFE" d="M47.514,19.508c0.388,0.074,0.775,0.149,1.163,0.223
		c0.398,0.04,0.782,0.125,1.14,0.313c0.221,0.117,0.455,0.19,0.701,0.23c0.08,0.003,0.163-0.001,0.209,0.084
		c0.095,0.083,0.208,0.123,0.33,0.143c0.213-0.005,0.365,0.124,0.527,0.234c0.053,0.027,0.106,0.054,0.16,0.082
		c0.063-0.005,0.116,0.008,0.14,0.076c0.055,0.029,0.108,0.059,0.163,0.088c0.146,0.041,0.283,0.097,0.388,0.212
		c0.051,0.03,0.102,0.059,0.152,0.088c0.162,0.082,0.335,0.147,0.446,0.303c0.062,0.083,0.146,0.134,0.243,0.162
		c0.579,0.324,1.048,0.771,1.449,1.294c0.058,0.071,0.115,0.142,0.173,0.212c0.066,0.041,0.123,0.088,0.138,0.17
		c0.021,0.027,0.04,0.054,0.061,0.081c0.1,0.086,0.204,0.169,0.232,0.309c0.059,0.146,0.134,0.281,0.247,0.393
		c0.2,0.278,0.414,0.55,0.479,0.9c0.051,0.191,0.107,0.378,0.221,0.544c0.133,0.264,0.288,0.522,0.24,0.838
		c0.072,0.256,0.146,0.512,0.219,0.768c0.096,0.119-0.004,0.273,0.07,0.397l-0.005-0.01c0.137,0.505,0.106,1.028,0.162,1.542
		l-0.003-0.007c0.076,0.179,0.069,0.357,0.004,0.537c0,0.223-0.001,0.446-0.002,0.669c-0.094,0.308,0.04,0.635-0.078,0.94
		l0.003-0.006c-0.095,0.171,0.038,0.376-0.083,0.543l0.004-0.007c-0.06,0.123-0.018,0.253-0.031,0.38
		c-0.608,3.234-2.598,5.351-5.48,6.726c0.029,0.148,0.199,0.15,0.215,0.278c1.075,0.332,2.114,0.74,3.056,1.377
		c1.739,1.178,2.877,2.808,3.553,4.765c0.841,2.433,0.938,4.922,0.468,7.442c-0.239,0.873-0.479,1.746-0.887,2.562
		c-1.117,2.234-2.911,3.746-5.13,4.801c-2.389,1.136-4.933,1.622-7.554,1.773c-0.214,0.013-0.434-0.024-0.641,0.063
		c-0.112,0.094-0.246,0.049-0.369,0.049c-6.686,0.002-13.372,0.002-20.057,0c-0.125,0-0.256,0.033-0.375-0.037
		c-0.016-0.021-0.037-0.031-0.063-0.03c0.001-14.061,0.001-28.122,0.002-42.182c0-0.179,0.002-0.358,0.002-0.538
		c0.101-0.083,0.221-0.046,0.333-0.046c7.002-0.001,14.005-0.003,21.007,0c0.411,0.067,0.83,0.02,1.242,0.075
		c0.084,0.012,0.179-0.029,0.247,0.053c0.394,0.049,0.786,0.098,1.18,0.147L47.514,19.508z"/>
	<path fill-rule="evenodd" clip-rule="evenodd" fill="#503973" d="M51.51,39.236c-0.24,0.026-0.436-0.1-0.662-0.161
		c0.082-0.211,0.269-0.22,0.408-0.286c2.043-0.974,3.683-2.375,4.719-4.422c0.342-0.675,0.556-1.396,0.757-2.122
		c0.028-0.051,0.056-0.051,0.083,0c0,0.051,0.001,0.103,0.001,0.154c-0.301,1.455-0.837,2.802-1.759,3.988
		c-0.819,1.055-1.822,1.881-2.981,2.527C51.886,39.021,51.699,39.129,51.51,39.236z"/>
	<path fill-rule="evenodd" clip-rule="evenodd" fill="#462573" d="M44.915,19.276c-1.93-0.001-3.86-0.003-5.79-0.003
		c-5.05,0-10.1,0-15.15,0c-0.153,0-0.307,0.005-0.46,0.008c-0.029-0.004-0.059-0.008-0.087-0.013
		c0.173-0.122,0.372-0.071,0.559-0.071c6.976-0.002,13.952-0.001,20.928-0.001c0.021,0.018,0.027,0.036,0.021,0.053
		C44.928,19.267,44.921,19.276,44.915,19.276z"/>
	<path fill-rule="evenodd" clip-rule="evenodd" fill="#583F7E" d="M23.42,24.799c-0.089-0.109-0.076-0.24-0.076-0.367
		c0-1.598,0-3.195,0-4.793c0-0.127-0.014-0.258,0.077-0.367C23.42,21.114,23.42,22.957,23.42,24.799z"/>
	<path fill-rule="evenodd" clip-rule="evenodd" fill="#583F7E" d="M23.42,28.944c-0.122-0.537-0.122-1.074,0-1.61
		C23.42,27.87,23.42,28.407,23.42,28.944z"/>
	<path fill-rule="evenodd" clip-rule="evenodd" fill="#583F7E" d="M23.42,27.102c-0.109-0.179-0.109-0.357,0-0.536
		C23.42,26.744,23.42,26.923,23.42,27.102z"/>
	<path fill-rule="evenodd" clip-rule="evenodd" fill="#583F7E" d="M23.42,26.411c-0.105-0.153-0.105-0.306,0-0.459
		C23.42,26.104,23.42,26.258,23.42,26.411z"/>
	<path fill-rule="evenodd" clip-rule="evenodd" fill="#43276A" d="M23.574,62.031c0.154-0.004,0.307-0.01,0.46-0.01
		c6.422-0.001,12.845-0.001,19.268-0.001c0.357,0,0.715-0.001,1.073-0.001c-0.14,0.131-0.314,0.087-0.477,0.087
		c-6.627,0.002-13.255,0.002-19.882,0.001C23.866,62.107,23.707,62.141,23.574,62.031z"/>
	<path fill-rule="evenodd" clip-rule="evenodd" fill="#583F7E" d="M44.915,19.276c0-0.027,0-0.053,0-0.08
		c0.653-0.048,1.293,0.138,1.947,0.137c-0.173,0.01-0.346,0.021-0.519,0.03C45.867,19.348,45.388,19.35,44.915,19.276z"/>
	<path fill-rule="evenodd" clip-rule="evenodd" fill="#583F7E" d="M54.726,23.04c-0.46-0.458-0.939-0.893-1.449-1.294
		c0.325-0.025,0.481,0.254,0.675,0.421C54.243,22.419,54.609,22.627,54.726,23.04z"/>
	<path fill-rule="evenodd" clip-rule="evenodd" fill="#583F7E" d="M49.817,20.044c-0.38-0.104-0.76-0.208-1.14-0.313
		c0.431-0.078,0.805,0.12,1.193,0.244c0.006,0.001,0.012,0.028,0.007,0.032C49.859,20.022,49.837,20.033,49.817,20.044z"/>
	<path fill-rule="evenodd" clip-rule="evenodd" fill="#5A4180" d="M56.962,29.184c-0.054-0.514-0.107-1.027-0.162-1.542
		C57.007,28.141,56.97,28.664,56.962,29.184z"/>
	<path fill-rule="evenodd" clip-rule="evenodd" fill="#583F7E" d="M56.055,25.105c-0.159-0.3-0.318-0.6-0.479-0.9
		C55.858,24.44,56.053,24.722,56.055,25.105z"/>
	<path fill-rule="evenodd" clip-rule="evenodd" fill="#583F7E" d="M56.516,26.487c-0.08-0.279-0.16-0.559-0.24-0.838
		C56.511,25.884,56.611,26.158,56.516,26.487z"/>
	<path fill-rule="evenodd" clip-rule="evenodd" fill="#583F7E" d="M53.034,21.584c-0.174-0.063-0.313-0.177-0.446-0.303
		C52.794,21.297,52.987,21.334,53.034,21.584z"/>
	<path fill-rule="evenodd" clip-rule="evenodd" fill="#5A4180" d="M56.883,31.323c0.008-0.315-0.002-0.631,0.078-0.94
		C56.939,30.696,57.051,31.021,56.883,31.323z"/>
	<path fill-rule="evenodd" clip-rule="evenodd" fill="#583F7E" d="M47.523,19.51c-0.086-0.042-0.173-0.083-0.271-0.131
		c0.2-0.069,0.366,0.015,0.549,0.073c-0.093,0.086-0.196,0.035-0.286,0.056L47.523,19.51z"/>
	<path fill-rule="evenodd" clip-rule="evenodd" fill="#583F7E" d="M52.435,21.193c-0.146-0.042-0.278-0.104-0.388-0.212
		C52.237,20.941,52.393,20.962,52.435,21.193z"/>
	<path fill-rule="evenodd" clip-rule="evenodd" fill="#583F7E" d="M51.584,20.735c-0.193-0.04-0.363-0.129-0.527-0.234
		C51.295,20.439,51.46,20.54,51.584,20.735z"/>
	<path fill-rule="evenodd" clip-rule="evenodd" fill="#5A4180" d="M56.963,29.713c-0.001-0.179-0.003-0.357-0.004-0.537
		C57.085,29.355,57.08,29.534,56.963,29.713z"/>
	<path fill-rule="evenodd" clip-rule="evenodd" fill="#583F7E" d="M55.33,23.813c-0.078-0.103-0.155-0.206-0.232-0.309
		C55.215,23.575,55.402,23.596,55.33,23.813z"/>
	<path fill-rule="evenodd" clip-rule="evenodd" fill="#5A4180" d="M56.803,31.859c0-0.185,0.01-0.369,0.083-0.543
		C56.876,31.5,56.948,31.696,56.803,31.859z"/>
	<path fill-rule="evenodd" clip-rule="evenodd" fill="#583F7E" d="M50.727,20.358c-0.069-0.028-0.139-0.056-0.209-0.084
		C50.629,20.199,50.716,20.184,50.727,20.358z"/>
	<path fill-rule="evenodd" clip-rule="evenodd" fill="#583F7E" d="M55.037,23.422c-0.046-0.057-0.092-0.113-0.138-0.17
		C55.026,23.244,55.092,23.284,55.037,23.422z"/>
	<path fill-rule="evenodd" clip-rule="evenodd" fill="#583F7E" d="M51.884,20.893c-0.047-0.025-0.093-0.05-0.14-0.076
		c0.034-0.04,0.075-0.07,0.127-0.043C51.928,20.804,51.924,20.848,51.884,20.893z"/>
	<path fill-rule="evenodd" clip-rule="evenodd" fill="#5A4180" d="M56.805,27.652c-0.064-0.125-0.078-0.259-0.07-0.397
		C56.841,27.373,56.812,27.514,56.805,27.652z"/>
	<path fill-rule="evenodd" clip-rule="evenodd" fill="#5A4180" d="M56.815,32.246c-0.027,0-0.055,0-0.083,0
		c-0.006-0.137,0.008-0.271,0.075-0.393C56.81,31.983,56.812,32.114,56.815,32.246z"/>
	<path fill-rule="evenodd" clip-rule="evenodd" fill="#5A4180" d="M51.143,47.198c0.153,0.377,0.164,0.778,0.205,1.175
		c-0.038,0.508-0.034,1.017-0.002,1.525c-0.178,3.313-2.451,5.629-5.804,5.924c-0.587,0.052-1.172,0.072-1.76,0.072
		c-4.114-0.002-8.229,0-12.342-0.006c-0.137,0-0.303,0.082-0.417-0.076c0.069-0.146,0.034-0.303,0.034-0.453
		c0.004-4.056-0.002-8.11,0.005-12.165c0.054-0.16,0.188-0.194,0.333-0.208c0.127-0.012,0.255-0.012,0.383-0.012
		c4.387,0,8.774-0.018,13.161,0.01c1.456,0.009,2.831,0.388,4.05,1.23c0.909,0.629,1.576,1.443,1.939,2.498
		C50.987,46.879,51.023,47.059,51.143,47.198z"/>
	<path fill-rule="evenodd" clip-rule="evenodd" fill="#59407F" d="M49.306,29.531c0.357,2.232,0.249,4.357-1.543,6.025
		c-1.131,1.052-2.527,1.575-4.054,1.59c-4.145,0.042-8.289,0.024-12.433,0.027c-0.088,0-0.214,0.058-0.254-0.092
		c0.069-0.133,0.035-0.276,0.035-0.414c0.004-3.559-0.003-7.118,0.005-10.676c0.07-0.17,0.221-0.194,0.378-0.205
		c0.153-0.011,0.307-0.009,0.46-0.009c3.858,0,7.716-0.005,11.574,0.002c1.04,0.002,2.063,0.142,3.037,0.528
		c0.844,0.334,1.613,0.777,2.112,1.574c0.272,0.435,0.452,0.912,0.588,1.405C49.236,29.373,49.228,29.469,49.306,29.531z"/>
	<path fill-rule="evenodd" clip-rule="evenodd" fill="#503A73" d="M51.143,47.198c-0.007,0.038-0.001,0.09-0.024,0.11
		c-0.077,0.067-0.072-0.029-0.084-0.058c-0.156-0.405-0.307-0.81-0.536-1.185c-0.972-1.595-2.449-2.404-4.227-2.764
		c-0.731-0.147-1.469-0.16-2.21-0.159c-4.321,0.007-8.643,0.004-12.963,0.005c-0.097-0.17,0.01-0.364-0.066-0.536
		c0.107-0.108,0.242-0.053,0.362-0.053c4.281-0.004,8.563-0.013,12.846,0.002c1.657,0.005,3.262,0.273,4.663,1.246
		C50.099,44.637,50.866,45.759,51.143,47.198z"/>
	<path fill-rule="evenodd" clip-rule="evenodd" fill="#4F3972" d="M49.306,29.531c-0.005,0.012-0.006,0.027-0.015,0.035
		c-0.017,0.014-0.037,0.022-0.057,0.033c-0.051-0.158-0.103-0.315-0.152-0.474c-0.418-1.316-1.331-2.146-2.59-2.636
		c-0.978-0.38-1.997-0.534-3.038-0.536c-4.118-0.006-8.237-0.001-12.355,0c-0.101-0.142,0.021-0.321-0.079-0.462
		c0.052-0.167,0.192-0.094,0.29-0.094c4.164,0.001,8.329-0.009,12.493,0.021c1.385,0.01,2.715,0.315,3.863,1.153
		C48.667,27.302,49.133,28.338,49.306,29.531z"/>
	<path fill-rule="evenodd" clip-rule="evenodd" fill="#4F3179" d="M31.033,42.612c0.107,0.168,0.049,0.356,0.066,0.536
		c0,4.048,0,8.096-0.003,12.145c0,0.175,0.045,0.359-0.072,0.52c-0.006-0.102-0.019-0.202-0.019-0.304
		c-0.002-4.199-0.003-8.397-0.002-12.596C31.003,42.813,31.022,42.713,31.033,42.612z"/>
	<path fill-rule="evenodd" clip-rule="evenodd" fill="#4D3077" d="M31.02,25.491c0.116,0.139,0.064,0.306,0.079,0.462
		c0,3.536,0,7.073-0.003,10.609c0,0.175,0.045,0.36-0.073,0.52c-0.006-0.369-0.017-0.739-0.018-1.108
		c-0.002-3.38-0.002-6.76-0.002-10.141C31.002,25.719,31.014,25.605,31.02,25.491z"/>
	<path fill-rule="evenodd" clip-rule="evenodd" fill="#482874" d="M51.346,49.898c-0.093-0.509-0.099-1.018,0.002-1.525
		C51.385,48.881,51.383,49.39,51.346,49.898z"/>
</g>
</svg>
