<?xml version="1.0" encoding="utf-8"?>
<!-- Generator: Adobe Illustrator 16.0.0, SVG Export Plug-In . SVG Version: 6.00 Build 0)  -->
<!DOCTYPE svg PUBLIC "-//W3C//DTD SVG 1.1//EN" "http://www.w3.org/Graphics/SVG/1.1/DTD/svg11.dtd">
<svg version="1.1" id="Layer_1" xmlns="http://www.w3.org/2000/svg" xmlns:xlink="http://www.w3.org/1999/xlink" x="0px" y="0px"
	 width="125.703px" height="80px" viewBox="0 0 125.703 80" enable-background="new 0 0 125.703 80" xml:space="preserve">
<g>
	<path fill="#F42534" d="M78.493,36.437L43.563,1.509c-2.011-2.012-5.273-2.012-7.286,0l-7.253,7.253l9.2,9.201
		c2.139-0.723,4.591-0.238,6.295,1.466c1.714,1.715,2.194,4.188,1.453,6.334l8.868,8.867c2.146-0.74,4.62-0.262,6.334,1.455
		c2.395,2.394,2.395,6.274,0,8.669c-2.396,2.396-6.275,2.396-8.672,0c-1.801-1.802-2.246-4.449-1.333-6.667l-8.271-8.271v21.763
		c0.583,0.289,1.134,0.674,1.621,1.159c2.394,2.394,2.394,6.273,0,8.671c-2.395,2.393-6.276,2.393-8.669,0
		c-2.395-2.398-2.395-6.277,0-8.671c0.592-0.591,1.276-1.039,2.008-1.338V29.438c-0.731-0.299-1.415-0.743-2.008-1.338
		c-1.814-1.813-2.25-4.475-1.32-6.702l-9.07-9.072L1.509,36.275c-2.012,2.014-2.012,5.276,0,7.288L36.44,78.491
		c2.011,2.012,5.272,2.012,7.286,0l34.767-34.766C80.505,41.713,80.505,38.449,78.493,36.437z"/>
</g>
<g>
	<path fill-rule="evenodd" clip-rule="evenodd" fill="#201F1F" d="M71.261,45.556c-1.201-0.206-2.405-0.391-3.602-0.621
		c-3.124-0.602-6.132-1.533-8.871-3.208c-2.305-1.409-4.167-3.252-5.501-5.606c-0.182-0.32-0.367-0.424-0.732-0.408
		c-6.68,0.293-13.29,1.058-19.76,2.823c-0.142,0.038-0.39,0.235-0.471-0.06c-0.08-0.291,0.225-0.24,0.367-0.28
		c4.025-1.102,8.125-1.818,12.271-2.272c2.426-0.265,4.857-0.477,7.297-0.521c0.569-0.01,0.479-0.186,0.359-0.617
		c-0.266-0.93-0.801-1.161-1.749-1.18c-6.041-0.117-12.045,0.19-17.999,1.289c-0.224,0.042-0.628,0.3-0.699-0.039
		c-0.076-0.36,0.381-0.254,0.606-0.296c5.928-1.11,11.912-1.446,17.933-1.288c0.395,0.01,0.79,0.001,1.236,0.001
		c-0.337-1.149-0.691-2.278-0.869-3.445c-0.594-3.897-0.898-7.79,0.302-11.642c0.69-2.22,1.82-4.198,3.354-5.936
		c0.297-0.335,0.365-0.588,0.226-1.029c-1.165-3.673-0.78-7.276,0.542-10.832c0.138-0.372,0.418-0.361,0.704-0.374
		c1.506-0.067,2.936,0.3,4.333,0.803c2.405,0.866,4.608,2.119,6.72,3.544c0.313,0.211,0.584,0.274,0.976,0.176
		c6.624-1.665,13.274-1.757,19.937-0.25c0.436,0.098,0.736,0.019,1.092-0.211c2.469-1.605,5.032-3.02,7.915-3.752
		c0.912-0.232,1.84-0.36,2.786-0.313c0.358,0.018,0.552,0.154,0.68,0.506c1.191,3.291,1.588,6.632,0.688,10.062
		c-0.074,0.283-0.058,0.48,0.166,0.713c3.365,3.524,4.902,7.75,4.854,12.601c-0.031,3.155-0.196,6.289-0.995,9.383
		c0.542,0,1.061,0.013,1.577-0.002c6.104-0.169,12.171,0.171,18.185,1.283c0.062,0.011,0.137,0.001,0.182,0.033
		c0.133,0.094,0.455-0.035,0.397,0.258c-0.059,0.296-0.312,0.116-0.467,0.086c-5.637-1.054-11.331-1.405-17.057-1.344
		c-0.834,0.009-1.668,0.079-2.501,0.067c-0.374-0.005-0.492,0.151-0.594,0.464c-0.401,1.243-0.41,1.233,0.906,1.288
		c6.452,0.265,12.826,1.072,19.072,2.763c0.1,0.027,0.204,0.043,0.3,0.082c0.085,0.034,0.226,0.041,0.184,0.191
		c-0.037,0.134-0.111,0.202-0.277,0.147c-0.276-0.089-0.562-0.15-0.844-0.224c-4.161-1.088-8.391-1.773-12.667-2.203
		c-2.242-0.224-4.49-0.349-6.74-0.455c-0.259-0.012-0.508-0.076-0.668,0.275c-1.811,3.983-5.059,6.289-9.057,7.707
		c-2.686,0.953-5.466,1.454-8.29,1.757c-0.139,0.016-0.296-0.021-0.409,0.104c-0.226,0.248-0.531,0.213-0.816,0.213
		c-4.39,0.006-8.779,0.011-13.17-0.004C72.15,45.76,71.686,45.765,71.261,45.556z"/>
	<path fill-rule="evenodd" clip-rule="evenodd" fill="#201F1F" d="M67.908,50.828c0.385-1.23,0.792-2.45,1.562-3.509
		c0.06-0.083,0.13-0.157,0.196-0.235c1.131-0.621,2.392-0.661,3.626-0.809c1.573-0.189,3.161-0.053,4.735-0.155
		c1.752-0.113,3.489-0.024,5.223,0.162c1.993,0.214,3.803,0.884,5.221,2.391c0.557,0.593,0.906,1.326,1.364,1.987
		c0.286,0.987,0.289,2.005,0.297,3.017c0.021,2.662,0.006,5.325,0.008,7.987c0.001,0.227,0.024,0.455,0.035,0.682
		c0.207,0.196,0.179,0.455,0.181,0.701c0.007,0.561-0.021,1.123,0.008,1.682c0.08,1.469,0.727,2.616,2,3.383
		c0.301,0.182,0.639,0.305,0.904,0.546c0.482,0.44,0.542,0.874,0.193,1.418c-0.682,0.53-1.477,0.345-2.222,0.298
		c-0.888-0.057-1.768-0.229-2.586-0.617c-2.114-0.869-3.097-2.497-3.146-4.733c-0.021-1.083-0.006-2.167-0.004-3.251
		c-0.031-1.892-0.004-3.784-0.016-5.676c-0.006-0.962-0.143-1.907-0.471-2.816c-0.096-0.267-0.183-0.546-0.506-0.835
		c-0.044,3.149,0.008,6.192-0.027,9.233c0.01,2.166,0,4.331,0.006,6.495c0.004,1.416,0.357,2.681,1.579,3.558
		c0.611,0.97,0.43,1.542-0.625,1.979c-0.167,0.047-0.338,0.062-0.511,0.061c-1.48-0.169-2.775-0.782-3.957-1.668
		c-1.123-1.029-1.646-2.278-1.637-3.825c0.027-5.348,0.047-10.698,0.031-16.047c-0.001-0.312,0.021-0.625-0.031-0.932
		c-0.303-0.552-0.445-0.567-0.834-0.085c-0.063,0.291-0.032,0.583-0.033,0.874c-0.017,5.391,0.021,10.782,0.02,16.173
		c0,1.52-0.538,2.8-1.631,3.85c-1.341,1.02-2.794,1.73-4.537,1.649c-0.07-0.005-0.139-0.021-0.206-0.043
		c-0.902-0.568-0.968-1.077-0.262-2.032c1.229-0.754,1.524-1.915,1.506-3.265c-0.03-2.241-0.02-4.483-0.005-6.725
		c-0.028-3.094,0.01-6.189-0.021-9.343c-0.345,0.154-0.413,0.424-0.502,0.663c-0.341,0.906-0.471,1.852-0.478,2.814
		c-0.016,1.976,0.015,3.951-0.014,5.926c-0.007,1.126,0.022,2.253-0.012,3.378c-0.065,2.193-1.093,3.756-3.124,4.634
		c-1.408,0.57-2.875,0.73-4.379,0.606c-0.406-0.107-0.75-0.3-0.799-0.762c-0.053-0.495,0.222-0.829,0.627-1.063
		c0.342-0.198,0.712-0.344,1.054-0.545c1.175-0.693,1.781-1.709,1.774-3.082c-0.002-0.583-0.005-1.167,0.002-1.75
		c0.003-0.247-0.023-0.506,0.181-0.702c0.055-2.172,0.076-4.344-0.011-6.515c-0.092-1.621-0.151-3.24,0.11-4.852
		C67.782,50.999,67.841,50.909,67.908,50.828z"/>
	<path fill-rule="evenodd" clip-rule="evenodd" fill="#9BD9EF" d="M93.425,69.937c0.236-0.59,0.075-1.061-0.562-1.356
		c-1.98-0.917-2.782-2.509-2.723-4.618c0.015-0.539,0.023-1.079,0.034-1.619c3.952,0.663,7.835,1.564,11.39,3.504
		c1.191,0.65,2.303,1.414,3.134,2.53c1.256,1.69,1.147,3.537-0.305,5.104c-1.396,1.505-3.167,2.43-5.018,3.197
		c-2.873,1.191-5.89,1.893-8.948,2.419c-0.08,0.014-0.166-0.003-0.249-0.006c-0.174-0.185-0.166-0.418-0.167-0.645
		c-0.004-1.392-0.027-2.783,0.007-4.173c0.041-1.689,1.223-3.308,2.814-3.906C93.078,70.277,93.262,70.127,93.425,69.937z"/>
	<path fill-rule="evenodd" clip-rule="evenodd" fill="#9BD9EF" d="M67.667,62.469c0.063,0.973,0.09,1.951-0.013,2.918
		c-0.149,1.423-0.985,2.375-2.245,2.984c-0.223,0.108-0.458,0.193-0.675,0.312c-0.345,0.189-0.588,0.46-0.59,0.882
		c-0.004,0.421,0.333,0.531,0.633,0.673c1.893,0.62,3.047,2.21,3.057,4.224c0.006,1.248,0.006,2.497-0.003,3.745
		c-0.001,0.264,0.047,0.547-0.169,0.768c-4.158-0.726-8.221-1.732-11.819-4.078c-0.79-0.514-1.492-1.135-2.033-1.915
		c-1.188-1.712-1.04-3.468,0.379-5.002c1.32-1.427,2.991-2.318,4.735-3.07C61.724,63.703,64.668,62.979,67.667,62.469z"/>
	<path fill-rule="evenodd" clip-rule="evenodd" fill="#201F1F" d="M67.405,55.956c-5.015,1.158-9.976,0.248-12.817-4.857
		c-0.362-0.654-0.738-1.302-1.128-1.941c-0.853-1.401-1.982-2.506-3.477-3.221c-0.526-0.251-1.038-0.539-1.434-0.982
		c-0.446-0.502-0.356-0.909,0.275-1.152c1.006-0.388,2.012-0.232,2.995,0.095c1.899,0.633,3.306,1.89,4.366,3.554
		c0.584,0.916,1.18,1.818,1.999,2.545c2.477,2.201,5.295,2.364,8.301,1.383c0.394-0.129,0.776-0.294,1.165-0.442
		c0.214,0.261,0.075,0.501-0.044,0.742c-0.176,0.264-0.737,0.084-0.698,0.564c0.027,0.347,0.551,0.275,0.629,0.624
		c0.112,0.88,0.036,1.761,0.044,2.641C67.585,55.676,67.517,55.827,67.405,55.956z"/>
	<path fill-rule="evenodd" clip-rule="evenodd" fill="#7CB9E5" d="M93.425,69.937c-0.116,0.35-0.407,0.503-0.715,0.644
		c-1.639,0.75-2.434,2.088-2.511,3.832c-0.068,1.557-0.019,3.12-0.021,4.68c-1.402,0.247-2.811,0.456-4.234,0.534
		c-0.515,0.061-0.437-0.349-0.446-0.618c-0.039-0.955-0.009-1.912-0.018-2.867c-0.006-0.851,0.043-1.705-0.071-2.553
		c0.957-0.44,1.082-0.788,0.621-1.719c0.559-1.137,1.579-1.731,2.655-2.258c1.135,0.409,2.298,0.636,3.51,0.64
		C92.642,70.252,93.054,70.198,93.425,69.937z"/>
	<path fill-rule="evenodd" clip-rule="evenodd" fill="#7CB9E5" d="M67.662,78.975c-0.001-1.516,0.016-3.032-0.008-4.547
		c-0.027-1.86-0.933-3.166-2.6-3.956c-0.118-0.056-0.216-0.118-0.277-0.233c1.499,0.063,2.969-0.086,4.383-0.625
		c1.156,0.441,2.121,1.114,2.717,2.234c-0.516,0.908-0.46,1.255,0.287,1.763c0.197,0.219,0.197,0.492,0.198,0.761
		c0.006,1.489,0.007,2.978-0.001,4.466c-0.001,0.268,0.009,0.544-0.208,0.754C70.644,79.482,69.139,79.323,67.662,78.975z"/>
	<path fill-rule="evenodd" clip-rule="evenodd" fill="#9BD9EF" d="M76.653,72.08c1.242-1.181,1.688-2.639,1.675-4.333
		c-0.037-5.352-0.021-10.704-0.017-16.056c0-0.24-0.088-0.501,0.095-0.721c0.29,0.289,0.209,0.661,0.21,1.005
		c0.007,2.811-0.001,5.621,0.012,8.432c0.002,0.276-0.153,0.76,0.258,0.77c0.479,0.012,0.327-0.497,0.329-0.792
		c0.016-2.769,0.004-5.538,0.014-8.307c0.001-0.343-0.086-0.718,0.219-0.999c0.164,0.225,0.086,0.483,0.086,0.725
		c-0.007,5.345,0.006,10.691-0.047,16.037c-0.016,1.683,0.435,3.105,1.709,4.231c0.079,0.299-0.096,0.517-0.239,0.743
		c-0.751,1.169-1.063,2.466-1.099,3.837c-0.021,0.85,0,1.7-0.006,2.55c-0.002,0.265,0.031,0.544-0.172,0.768
		c-1.094-0.048-2.193,0.146-3.28-0.092c0.335-0.308,0.749-0.179,1.131-0.189c0.377-0.01,0.62-0.127,0.579-0.538
		c-0.146-1.423,0.002-2.869-0.314-4.279c-0.17-0.757-0.467-1.461-0.881-2.119C76.783,72.55,76.587,72.363,76.653,72.08z"/>
	<path fill-rule="evenodd" clip-rule="evenodd" fill="#7CB9E5" d="M79.68,79.971c0.055-1.718-0.172-3.444,0.23-5.154
		c0.238-1.016,0.755-1.877,1.285-2.743c1.126,0.807,2.359,1.353,3.737,1.55c0.116,0.15,0.088,0.319,0.036,0.477
		c-0.514,1.529-0.502,3.109-0.479,4.692c0.004,0.328,0.049,0.671-0.176,0.96C82.773,79.929,81.229,80.025,79.68,79.971z"/>
	<path fill-rule="evenodd" clip-rule="evenodd" fill="#7CB9E5" d="M76.653,72.08c1.047,1.344,1.531,2.869,1.526,4.571
		c-0.001,0.891,0.063,1.783,0.118,2.673c0.023,0.397-0.1,0.573-0.524,0.547c-0.455-0.027-0.916,0.002-1.374,0.007
		c-0.953-0.006-1.906-0.018-2.852-0.16c-0.243-0.255-0.182-0.579-0.193-0.883c-0.033-1.032,0.069-2.068-0.069-3.098
		c-0.111-0.808-0.216-1.619-0.992-2.115C73.938,73.651,75.355,73.032,76.653,72.08z"/>
	<path fill-rule="evenodd" clip-rule="evenodd" d="M89.835,50.659c-0.14,0.426-0.202,0.041-0.244-0.034
		c-0.577-1.02-1.216-1.977-2.196-2.675c-1.256-0.894-2.678-1.267-4.168-1.521c-1.114-0.19-2.254-0.215-3.348-0.177
		c-1.929,0.066-3.861-0.031-5.791,0.157c-1.094,0.106-2.183,0.209-3.266,0.399c-0.395,0.069-0.725,0.388-1.156,0.275
		c0.438-0.608,0.972-1.113,1.595-1.528c0.386-0.23,0.77,0.014,1.154,0.013c4.724-0.012,9.448-0.013,14.173-0.017
		C88.311,46.848,89.433,48.524,89.835,50.659z"/>
	<path fill-rule="evenodd" clip-rule="evenodd" fill="#9BD9EF" d="M84.314,79.752c0.029-1.61-0.164-3.231,0.241-4.821
		c0.112-0.439,0.25-0.872,0.377-1.308c0.159-0.012,0.317-0.023,0.477-0.035c0.367,0.07,0.271,0.363,0.271,0.593
		c0.006,1.614,0,3.227,0.008,4.84c0.001,0.227-0.109,0.523,0.257,0.604C85.414,79.833,84.855,79.687,84.314,79.752z"/>
	<path fill-rule="evenodd" clip-rule="evenodd" fill="#9BD9EF" d="M72.293,73.623c0.717,0.042,0.864,0.549,1.012,1.136
		c0.355,1.415,0.191,2.849,0.233,4.274c0.007,0.229,0.006,0.458,0.01,0.686c-0.465-0.042-0.93-0.084-1.395-0.127
		c0.003-1.994,0.007-3.988,0.011-5.981C72.206,73.614,72.249,73.618,72.293,73.623z"/>
	<path fill-rule="evenodd" clip-rule="evenodd" fill="#9CD9EF" d="M49.355,45.941c0.223,0.818,0.442,1.636,0.667,2.454
		c0.114,0.416,0.048,0.79-0.304,1.056c-0.255,0.192-0.547,0.166-0.822,0.006c-0.385-0.223-0.467-0.603-0.379-0.974
		c0.205-0.86,0.468-1.706,0.707-2.557C49.269,45.93,49.312,45.936,49.355,45.941z"/>
	<path fill-rule="evenodd" clip-rule="evenodd" fill="#030303" d="M67.405,55.956c-0.001-1.088-0.002-2.176-0.004-3.265
		c-0.242-0.358-0.137-0.673,0.118-0.97c0.044-0.262,0.087-0.523,0.132-0.785c0.038-0.147,0.157-0.103,0.257-0.109
		c-0.169,1.546-0.118,3.1-0.136,4.651c-0.002,0.159-0.074,0.317-0.116,0.476C67.573,55.955,67.49,55.956,67.405,55.956z"/>
	<path fill-rule="evenodd" clip-rule="evenodd" fill="#F3C9B0" d="M99.564,30.173c0.11,2.38-0.164,4.706-1.155,6.893
		c-1.495,3.295-4.315,4.826-7.659,5.61c-2.632,0.618-5.313,0.756-8.003,0.818c-4.419,0.102-8.835,0.136-13.219-0.56
		c-2.189-0.348-4.312-0.92-6.274-1.99c-3.168-1.727-4.862-4.445-5.354-7.968c-0.124-0.888-0.196-1.781-0.124-2.679
		c0.278-2.81,1.754-4.929,3.875-6.659c1.438-1.174,3.171-1.553,4.964-1.642c2.334-0.116,4.659,0.111,6.983,0.318
		c2.967,0.264,5.931,0.372,8.913,0.09c2.713-0.257,5.432-0.54,8.168-0.423c2.221,0.096,4.235,0.738,5.837,2.338
		C98.141,25.941,99.343,27.809,99.564,30.173z"/>
	<path fill-rule="evenodd" clip-rule="evenodd" fill="#C39A85" d="M99.564,30.173c-0.329-1.356-0.78-2.663-1.586-3.82
		c-1.397-2.007-3.111-3.565-5.632-3.994c-1.819-0.31-3.644-0.248-5.471-0.115c-1.095,0.08-2.187,0.229-3.284,0.277
		c-1.887,0.084-3.771,0.347-5.663,0.249c-2.05-0.107-4.096-0.268-6.142-0.438c-2.357-0.195-4.729-0.392-7.083,0.092
		c-2.136,0.44-3.687,1.73-4.963,3.421c-1.003,1.331-1.653,2.817-1.965,4.453c-0.03-2.06,0.854-3.768,2.042-5.367
		c1.899-2.562,4.5-3.614,7.623-3.658c2.672-0.038,5.324,0.217,7.986,0.35c2.287,0.114,4.581,0.112,6.874-0.039
		c2.825-0.187,5.649-0.452,8.486-0.296c4.095,0.225,7.903,3.589,8.668,7.649C99.533,29.348,99.614,29.753,99.564,30.173z"/>
	<path fill-rule="evenodd" clip-rule="evenodd" fill="#9BD9EF" d="M71.877,71.847c-0.549-0.394-0.846-1.033-1.429-1.41
		c-0.427-0.276-0.938-0.429-1.288-0.824c2.198-0.995,3.089-2.751,3.005-5.1c-0.032-0.891,0.008-1.784,0.015-2.675
		c0.432-0.219,0.87-0.362,1.344-0.123c0.004,2.472,0.014,4.943,0.007,7.415C73.527,70.36,72.976,71.275,71.877,71.847z"/>
	<path fill-rule="evenodd" clip-rule="evenodd" fill="#9BD9EF" d="M88.686,69.612c-0.199,0.454-0.698,0.477-1.047,0.713
		c-0.629,0.426-1.068,1.034-1.608,1.544c-1.313-0.691-1.671-1.93-1.705-3.249c-0.06-2.304-0.008-4.61-0.002-6.916
		c0.472-0.259,0.92-0.258,1.336,0.118c0.01,1.101,0.009,2.203,0.032,3.303C85.734,67.255,86.761,68.736,88.686,69.612z"/>
	<path fill-rule="evenodd" clip-rule="evenodd" fill="#FEFEFE" d="M73.523,61.716c-0.448,0.041-0.896,0.082-1.344,0.123
		c0.016-2.498-0.152-4.998,0.107-7.492c0.063-0.625,0.239-1.226,0.532-1.783c0.148-0.283,0.307-0.579,0.704-0.758
		C73.523,55.156,73.523,58.436,73.523,61.716z"/>
	<path fill-rule="evenodd" clip-rule="evenodd" fill="#FEFEFE" d="M85.659,61.824c-0.437-0.134-0.889-0.105-1.336-0.118
		c0-3.229,0-6.458,0-9.729c0.357,0.095,0.468,0.396,0.609,0.65c0.498,0.895,0.698,1.885,0.72,2.883
		C85.698,57.613,85.662,59.719,85.659,61.824z"/>
	<path fill-rule="evenodd" clip-rule="evenodd" fill="#FCFCFC" d="M79.447,51.08c-0.009,3.265-0.018,6.53-0.026,9.796
		c-0.001,0.316,0.047,0.579-0.444,0.626c-0.504,0.049-0.575-0.099-0.574-0.548c0.016-3.328,0.006-6.656,0.004-9.984
		C78.82,50.512,79.135,50.545,79.447,51.08z"/>
	<path fill-rule="evenodd" clip-rule="evenodd" fill="#99D5EB" d="M57.741,50.407c-0.03,0.245-0.152,0.43-0.47,0.421
		c-0.393-0.011-0.844-0.489-0.822-0.883c0.016-0.266,0.152-0.425,0.431-0.432C57.259,49.502,57.736,49.978,57.741,50.407z"/>
	<path fill-rule="evenodd" clip-rule="evenodd" fill="#98D4E9" d="M59.036,51.42c0.393,0.042,0.756,0.248,0.816,0.726
		c0.036,0.286-0.212,0.423-0.502,0.431c-0.441,0.011-0.962-0.409-0.921-0.765C58.465,51.501,58.689,51.413,59.036,51.42z"/>
	<path fill-rule="evenodd" clip-rule="evenodd" fill="#99D6EB" d="M61.807,53.341c-0.341-0.029-0.732-0.107-0.784-0.573
		c-0.043-0.388,0.284-0.471,0.589-0.478c0.424-0.009,0.842,0.106,0.875,0.595C62.51,53.232,62.174,53.331,61.807,53.341z"/>
	<path fill-rule="evenodd" clip-rule="evenodd" fill="#99D6EB" d="M64.613,53.377c-0.333-0.036-0.713-0.073-0.725-0.508
		c-0.012-0.432,0.356-0.524,0.702-0.537c0.378-0.013,0.77,0.102,0.769,0.539C65.358,53.282,64.965,53.347,64.613,53.377z"/>
	<path fill-rule="evenodd" clip-rule="evenodd" fill="#98D4EA" d="M54.832,47.875c0.022-0.247,0.103-0.44,0.399-0.445
		c0.347-0.005,0.774,0.458,0.756,0.843c-0.013,0.248-0.115,0.436-0.405,0.443C55.225,48.725,54.822,48.277,54.832,47.875z"/>
	<path fill-rule="evenodd" clip-rule="evenodd" fill="#97D3E8" d="M54.382,46.445c0.003,0.19-0.151,0.311-0.394,0.291
		c-0.379-0.031-0.609-0.266-0.67-0.63c-0.035-0.211,0.106-0.352,0.323-0.382C53.933,45.683,54.363,46.065,54.382,46.445z"/>
	<path fill-rule="evenodd" clip-rule="evenodd" fill="#97D3E8" d="M67.52,51.721c-0.04,0.324-0.08,0.647-0.118,0.97
		c-0.377,0.026-0.788-0.019-0.759-0.483C66.675,51.716,67.078,51.62,67.52,51.721z"/>
	<path fill-rule="evenodd" clip-rule="evenodd" fill="#95CFE4" d="M52.757,45.141c-0.053,0.232-0.214,0.317-0.416,0.286
		c-0.279-0.044-0.536-0.175-0.55-0.492c-0.011-0.242,0.209-0.283,0.405-0.267C52.492,44.691,52.698,44.834,52.757,45.141z"/>
	<path fill-rule="evenodd" clip-rule="evenodd" fill="#FEFEFE" d="M95.087,31.479c-0.088,1.751-0.499,3.517-1.907,4.916
		c-1.657,1.645-3.929,1.449-5.347-0.414c-1.969-2.585-1.977-7.183,0.171-9.658c1.636-1.886,4.009-1.882,5.673,0.318
		C94.726,28.025,95.05,29.638,95.087,31.479z"/>
	<path fill-rule="evenodd" clip-rule="evenodd" fill="#FEFEFE" d="M71.674,31.179c0.04,1.723-0.313,3.285-1.336,4.631
		c-1.744,2.298-4.167,2.322-5.932,0.044c-2.034-2.623-1.862-7.668,0.617-9.897c1.698-1.526,3.714-1.226,5.085,0.406
		C71.279,27.756,71.734,29.422,71.674,31.179z"/>
	<path fill-rule="evenodd" clip-rule="evenodd" fill="#AC5C51" d="M78.726,41.346c-1.146,0.004-1.923-0.567-2.44-1.551
		c-0.129-0.247-0.18-0.491,0.118-0.64c0.292-0.146,0.396,0.099,0.515,0.298c0.975,1.641,2.645,1.638,3.627-0.008
		c0.12-0.202,0.229-0.438,0.519-0.288c0.297,0.154,0.233,0.402,0.106,0.644C80.652,40.787,79.863,41.341,78.726,41.346z"/>
	<path fill-rule="evenodd" clip-rule="evenodd" fill="#AC5C51" d="M78.721,37.92c-0.559-0.008-1.057-0.518-1.058-1.084
		c-0.003-0.615,0.5-1.135,1.086-1.126c0.59,0.01,1.073,0.536,1.06,1.153C79.795,37.425,79.277,37.928,78.721,37.92z"/>
	<path fill-rule="evenodd" clip-rule="evenodd" fill="#AB5C51" d="M93.185,31.604c-0.032,0.897-0.283,1.959-0.993,2.863
		c-1.102,1.402-2.767,1.381-3.854-0.034c-1.255-1.629-1.278-4.52-0.052-6.162c1.142-1.528,2.898-1.511,4.009,0.039
		C92.871,29.116,93.193,30.224,93.185,31.604z"/>
	<path fill-rule="evenodd" clip-rule="evenodd" fill="#AB5C51" d="M64.871,31.31c0.002-1.246,0.295-2.398,1.157-3.338
		c1.033-1.127,2.464-1.112,3.492,0.012c1.498,1.637,1.53,4.928,0.063,6.594c-1.111,1.264-2.631,1.237-3.695-0.065
		C65.215,33.688,64.869,32.602,64.871,31.31z"/>
	<path fill-rule="evenodd" clip-rule="evenodd" fill="#FDFCFC" d="M89.409,30.182c-0.46-0.034-0.741-0.26-0.752-0.731
		c-0.009-0.475,0.276-0.747,0.722-0.75c0.415-0.004,0.699,0.25,0.718,0.694C90.115,29.86,89.863,30.116,89.409,30.182z"/>
	<path fill-rule="evenodd" clip-rule="evenodd" fill="#FDFBFB" d="M67.37,29.456c-0.007,0.437-0.415,0.83-0.852,0.822
		c-0.444-0.008-0.827-0.404-0.821-0.851c0.007-0.461,0.375-0.81,0.849-0.802C67.014,28.631,67.378,28.999,67.37,29.456z"/>
</g>
</svg>
