<?xml version="1.0" encoding="utf-8"?>
<!-- Generator: Adobe Illustrator 16.0.0, SVG Export Plug-In . SVG Version: 6.00 Build 0)  -->
<!DOCTYPE svg PUBLIC "-//W3C//DTD SVG 1.1//EN" "http://www.w3.org/Graphics/SVG/1.1/DTD/svg11.dtd">
<svg version="1.1" id="Layer_1" xmlns="http://www.w3.org/2000/svg" xmlns:xlink="http://www.w3.org/1999/xlink" x="0px" y="0px"
	 width="56.678px" height="80px" viewBox="0 0 56.678 80" enable-background="new 0 0 56.678 80" xml:space="preserve">
<polygon fill="#E44D26" points="5.158,73.574 0,15.722 56.678,15.722 51.515,73.565 28.305,80 "/>
<polygon fill="#F16529" points="28.339,75.082 47.094,69.882 51.506,20.452 28.339,20.452 "/>
<polygon fill="#EBEBEB" points="28.339,41.909 18.95,41.909 18.302,34.643 28.339,34.643 28.339,27.548 28.314,27.548 
	10.547,27.548 10.717,29.451 12.461,49.004 28.339,49.004 "/>
<polygon fill="#EBEBEB" points="28.339,60.337 28.308,60.345 20.405,58.211 19.9,52.552 16.061,52.552 12.777,52.552 13.772,63.692 
	28.307,67.728 28.339,67.719 "/>
<path d="M5.273,0h3.605v3.563h3.299V0h3.606v10.788h-3.606V7.176H8.88v3.612H5.273V0L5.273,0z"/>
<path d="M20.525,3.577h-3.174V0h9.956v3.577h-3.176v7.211h-3.606V3.577L20.525,3.577z"/>
<path d="M28.888,0h3.76l2.313,3.791L37.271,0h3.762v10.788h-3.591V5.44L34.96,9.276h-0.062L32.416,5.44v5.348h-3.528V0z"/>
<path d="M42.826,0h3.607v7.222h5.07v3.566h-8.678V0z"/>
<polygon fill="#FFFFFF" points="28.314,41.909 28.314,49.004 37.052,49.004 36.228,58.206 28.314,60.342 28.314,67.725 
	42.86,63.692 42.967,62.494 44.635,43.814 44.808,41.909 42.896,41.909 "/>
<polygon fill="#FFFFFF" points="28.314,27.548 28.314,31.954 28.314,34.626 28.314,34.643 45.431,34.643 45.431,34.643 
	45.453,34.643 45.596,33.048 45.919,29.451 46.089,27.548 "/>
</svg>
