<?xml version="1.0" encoding="utf-8"?>
<!-- Generator: Adobe Illustrator 16.0.0, SVG Export Plug-In . SVG Version: 6.00 Build 0)  -->
<!DOCTYPE svg PUBLIC "-//W3C//DTD SVG 1.1//EN" "http://www.w3.org/Graphics/SVG/1.1/DTD/svg11.dtd">
<svg version="1.1" id="Layer_1" xmlns="http://www.w3.org/2000/svg" xmlns:xlink="http://www.w3.org/1999/xlink" x="0px" y="0px"
	 width="97.299px" height="80px" viewBox="0 0 97.299 80" enable-background="new 0 0 97.299 80" xml:space="preserve">
<g>
	<g>
		<path fill-rule="evenodd" clip-rule="evenodd" fill="#193556" d="M67.98,12.864c0.796,0.152,1.402,0.684,2.074,1.069
			c8.476,4.869,16.922,9.789,25.426,14.604c1.335,0.755,1.832,1.529,1.818,3.1c-0.088,10.235-0.052,20.474-0.028,30.711
			c0.002,0.684-0.246,1.025-0.806,1.348c-8.121,4.663-16.232,9.346-24.346,14.024c-1.248,0.72-2.495,1.441-3.745,2.159
			c-0.118,0.068-0.237,0.176-0.396,0.087c-0.335-0.38-0.29-0.845-0.29-1.298c-0.001-5.226,0-10.451-0.001-15.676
			c0-1.348-0.002-1.348-1.364-1.351c-0.479-0.001-0.958,0.005-1.438-0.006c-0.292-0.007-0.579-0.028-0.782-0.279
			c0.022-0.507,0.443-0.422,0.729-0.437c0.858-0.044,1.722-0.048,2.58-0.007c0.639,0.03,0.907-0.257,1.013-0.837
			c0.319-1.763,0.777-3.497,1.109-5.257c0.173-0.917,0.037-1.062-0.89-0.969c-0.265,0.026-0.484,0.214-0.759,0.179
			c-0.321-0.219-0.232-0.54-0.209-0.847c0.06-0.854,0.046-6.338,0.029-6.837c-0.021-0.573-0.036-1.148,0-1.72
			c0.052-0.794-0.047-5.855,0.024-6.424c-0.023-0.337-0.046-0.671-0.046-1.007c0.002-7.654,0.001-15.308,0.004-22.962
			C67.689,13.759,67.616,13.264,67.98,12.864z"/>
		<path fill-rule="evenodd" clip-rule="evenodd" fill="#172C45" d="M67.861,54.009c0.256,0.231-0.343,3.353-0.668,4.607
			c-0.226,0.872-0.786,1.141-1.793,0.935c-0.805-0.165-1.2-0.673-1.102-1.505c0.142-1.169,0.495-2.299,0.682-3.46
			c0.049-0.297,0.199-0.684-0.299-0.714c-0.425-0.026-1.012-0.225-1.15,0.407c-0.32,1.475-0.779,2.923-0.874,4.444
			c-0.058,0.903,0.283,1.586,1.059,2.053c0.167,0.102,0.32,0.215,0.385,0.411c0.759,0.328,1.556,0.126,2.333,0.144
			c1.557,0.038,1.559,0.012,1.557,1.57c-0.003,5.688-0.009,11.376-0.012,17.064c-1.615-0.745-3.1-1.728-4.639-2.606
			c-5.229-2.989-10.442-6.009-15.66-9.017c-2.806-1.619-5.611-3.242-8.422-4.851c-0.284-0.164-0.437-0.354-0.403-0.686
			c0.013-0.144,0.001-0.288,0.001-0.434c0-10.641,0.004-21.28-0.012-31.922c-0.002-0.616,0.15-0.968,0.727-1.297
			c8.853-5.066,17.684-10.167,26.522-15.257c0.621-0.358,1.194-0.807,1.888-1.033c0.004,8.295,0.007,16.59,0.009,24.884
			c0,0.236,0.031,5.507,0.013,6.134C67.966,45.116,67.825,53.767,67.861,54.009z"/>
		<path fill-rule="evenodd" clip-rule="evenodd" fill="#FEFEFE" d="M74.605,58.131c-0.624,0-1.25-0.011-1.874,0.006
			c-0.212,0.005-0.516-0.13-0.572,0.245c-0.052,0.319,0.073,0.578,0.354,0.726c0.301,0.159,0.635,0.19,0.977,0.188
			c0.913-0.01,1.827,0.007,2.739-0.009c0.393-0.006,0.482,0.125,0.427,0.518c-0.207,1.493-0.193,1.514-1.672,1.489
			c-0.958-0.015-1.919,0.096-2.873-0.076c-1.73-0.315-2.319-1.024-2.203-2.754c0.062-0.889,0.259-1.757,0.588-2.586
			c0.843-2.119,2.394-2.54,4.389-2.513c0.094,0.003,0.188,0.036,0.283,0.046c1.74,0.182,2.355,0.882,2.313,2.632
			c-0.051,1.975-0.164,2.089-2.082,2.089C75.135,58.131,74.871,58.131,74.605,58.131z"/>
		<path fill-rule="evenodd" clip-rule="evenodd" fill="#FEFEFE" d="M64.101,61.188c-1.364-0.428-1.854-1.189-1.714-2.631
			c0.151-1.575,0.62-3.09,0.888-4.644c0.053-0.313,0.226-0.428,0.549-0.421c2.03,0.047,1.688-0.285,1.362,1.57
			c-0.174,0.988-0.419,1.963-0.588,2.953c-0.07,0.412-0.156,0.93,0.345,1.143c0.558,0.236,1.171,0.181,1.76,0.063
			c0.066-0.014,0.118-0.192,0.142-0.303c0.342-1.636,0.68-3.272,1.018-4.909c0.091-0.552,0.498-0.517,0.915-0.515
			c1.337,0.008,1.344,0.002,1.064,1.317c-0.408,1.916-0.848,3.827-1.227,5.749c-0.098,0.494-0.252,0.676-0.777,0.656
			C66.592,61.169,65.347,61.192,64.101,61.188z"/>
		<path fill-rule="evenodd" clip-rule="evenodd" fill="#FEFEFE" d="M85.946,57.02c0.957-1.39,1.88-2.673,2.737-3.998
			c0.328-0.507,0.688-0.753,1.29-0.687c0.356,0.04,0.72-0.004,1.079,0.013c0.207,0.008,0.484-0.113,0.604,0.093
			c0.129,0.224-0.138,0.379-0.259,0.54c-1.093,1.459-2.2,2.906-3.288,4.368c-0.795,1.068-1.763,2.046-1.903,3.476
			c-0.03,0.297-0.22,0.392-0.502,0.385c-0.504-0.01-1.009-0.01-1.514,0c-0.264,0.006-0.479-0.087-0.358-0.36
			c0.697-1.58-0.103-2.994-0.479-4.448c-0.118-0.455-0.016-0.562,0.407-0.524c0.214,0.021,0.433,0.004,0.648,0.004
			C85.561,55.88,85.561,55.88,85.946,57.02z"/>
		<path fill-rule="evenodd" clip-rule="evenodd" fill="#FEFEFE" d="M81.817,53.498c0.625,0,1.249-0.006,1.873,0.002
			c1.15,0.014,1.49,0.311,1.732,1.395c0.094,0.417,0.004,0.538-0.433,0.538c-1.197,0-2.396,0.067-3.595,0.067
			c-0.442,0-0.625,0.133-0.708,0.585c-0.272,1.483-0.617,2.955-0.888,4.438c-0.097,0.524-0.294,0.709-0.846,0.697
			c-1.483-0.031-1.483-0.002-1.166-1.48c0.401-1.874,0.816-3.746,1.193-5.624c0.092-0.458,0.253-0.658,0.746-0.627
			C80.422,53.529,81.12,53.498,81.817,53.498z"/>
		<path fill-rule="evenodd" clip-rule="evenodd" fill="#1C3758" d="M73.908,48.024c-1.106,0-2.216,0-3.322,0
			c-0.002-0.048-0.004-0.095-0.005-0.141c1.108,0,2.218,0,3.326,0C73.908,47.93,73.908,47.977,73.908,48.024z"/>
		<path fill-rule="evenodd" clip-rule="evenodd" fill="#FEFEFE" d="M60.635,59.203c0.285,0,0.476,0,0.663,0
			c0.123,0,0.292,0.012,0.304,0.133c0.063,0.59-0.229,1.112-0.362,1.664c-0.087,0.363-0.444,0.197-0.677,0.199
			c-1.633,0.014-3.266,0.012-4.896,0.007c-1.9-0.008-3.118-0.976-3.213-2.848c-0.125-2.47,0.492-4.751,2.693-6.218
			c1.397-0.933,2.996-0.971,4.547-0.379c1.524,0.581,2.319,2.127,2.064,3.786C61.567,56.787,61.057,57.929,60.635,59.203z"/>
		<path fill-rule="evenodd" clip-rule="evenodd" fill="#FEFEFE" d="M47.351,64.297c-1.21,0-1.191,0.003-0.93-1.161
			c0.119-0.537,0.228-0.946,0.944-0.852c0.399,0.055,0.594-0.344,0.763-0.667c0.327-0.628,0.377-1.333,0.54-2.007
			c0.256-1.07,0.498-2.146,0.703-3.227c0.085-0.451,0.299-0.569,0.732-0.574c1.682-0.016,1.681-0.029,1.321,1.596
			c-0.337,1.519-0.622,3.053-1.016,4.558C49.915,63.851,49.278,64.297,47.351,64.297z"/>
		<path fill-rule="evenodd" clip-rule="evenodd" fill="#FCFCFC" d="M51.039,53.496c1.273,0,1.232-0.007,1.008,1.192
			c-0.113,0.604-0.369,0.771-0.953,0.746c-1.65-0.071-1.572,0.346-1.14-1.543C50.134,53.102,50.776,53.729,51.039,53.496z"/>
		<g>
			<polygon fill-rule="evenodd" clip-rule="evenodd" fill="#C2C7CE" points="78.234,36.393 78.233,36.394 78.233,36.394 			"/>
		</g>
		<path fill-rule="evenodd" clip-rule="evenodd" fill="#1E3959" d="M73.806,56.432c-0.166,0-0.338,0.021-0.5-0.007
			c-0.242-0.042-0.616,0.166-0.699-0.133c-0.086-0.313,0.226-0.55,0.49-0.722c0.538-0.35,1.116-0.407,1.706-0.16
			c0.313,0.131,0.47,0.401,0.417,0.754c-0.061,0.418-0.398,0.237-0.626,0.261C74.334,56.451,74.07,56.432,73.806,56.432z"/>
		<path fill-rule="evenodd" clip-rule="evenodd" fill="#172C45" d="M57.082,59.138c-0.312,0-0.624,0.018-0.934-0.004
			c-0.643-0.045-1.159-0.377-1.236-1.005c-0.181-1.498,0.051-2.924,1.182-4.047c0.65-0.646,1.828-0.762,2.604-0.317
			c0.624,0.358,0.867,1.093,0.628,2.108c-0.227,0.953-0.518,1.891-0.767,2.838c-0.077,0.296-0.209,0.459-0.543,0.433
			C57.706,59.119,57.395,59.139,57.082,59.138z"/>
	</g>
	<g>
		<path fill-rule="evenodd" clip-rule="evenodd" fill="#FEFEFE" d="M57.736,33.056c-1.11,1.604-1.592,3.46-1.592,5.341
			c0.009,1.871,0.497,3.774,1.346,5.483c0.039,0.082,0.078,0.163,0.12,0.243c0.022,0.058,0.046,0.106,0.079,0.154
			c0.016,0.033,0.032,0.065,0.047,0.09c0.033,0.056,0.057,0.105,0.09,0.161c0.056,0.09,0.104,0.188,0.159,0.276
			c0.032,0.057,0.064,0.104,0.097,0.154c0.055,0.105,0.127,0.201,0.185,0.299c0.032,0.041,0.056,0.082,0.079,0.122
			c0.088,0.138,0.176,0.268,0.271,0.397c0,0.008,0.008,0.008,0.008,0.008c0.016,0.024,0.033,0.048,0.049,0.064
			c0.079,0.113,0.159,0.227,0.248,0.333c0.022,0.04,0.057,0.08,0.087,0.121c0.081,0.097,0.152,0.194,0.232,0.282
			c0.024,0.041,0.056,0.073,0.088,0.106c0.104,0.13,0.209,0.252,0.321,0.372c0,0,0,0,0,0.008c0.007,0,0.007,0.009,0.016,0.009
			c0.103,0.121,0.215,0.234,0.319,0.35c0.032,0.031,0.071,0.063,0.104,0.104c0.088,0.08,0.169,0.17,0.255,0.258
			c0.04,0.033,0.073,0.065,0.112,0.099c0.112,0.113,0.233,0.219,0.354,0.323c0,0.009,0,0.009,0.006,0.009
			c0.018,0.016,0.042,0.032,0.058,0.048c0.104,0.098,0.216,0.187,0.319,0.276c0.049,0.04,0.089,0.073,0.137,0.113
			c0.088,0.073,0.176,0.139,0.271,0.21c0.049,0.033,0.096,0.073,0.144,0.106c0.098,0.08,0.2,0.153,0.298,0.218
			c0.039,0.033,0.072,0.058,0.111,0.082c0.008,0.008,0.016,0.016,0.022,0.023c0.104,0.065,0.2,0.13,0.297,0.195
			c0.041,0.024,0.089,0.057,0.128,0.081c0.152,0.097,0.305,0.194,0.457,0.282c0.04,0.025,0.079,0.05,0.127,0.074
			c0.112,0.073,0.225,0.138,0.346,0.193c0.055,0.041,0.119,0.072,0.19,0.106c0.071,0.039,0.152,0.081,0.24,0.129
			c0.016,0.009,0.041,0.017,0.057,0.024c0.031,0.016,0.071,0.033,0.103,0.048c0.121,0.065,0.258,0.122,0.394,0.188
			c0.024,0.009,0.048,0.023,0.072,0.032c0.15,0.066,0.304,0.13,0.457,0.194c0.039,0.008,0.07,0.032,0.111,0.041
			c0.144,0.057,0.286,0.113,0.431,0.161c0.016,0.008,0.032,0.017,0.049,0.017c0.159,0.057,0.32,0.114,0.479,0.161
			c0.04,0.009,0.073,0.024,0.112,0.033c0.168,0.049,0.328,0.113,0.496,0.146c10.697,1.97,13.81-6.515,13.81-6.515
			c-2.617,3.443-7.249,4.351-11.642,3.338c-0.159-0.032-0.319-0.089-0.489-0.138c-0.03-0.007-0.079-0.024-0.118-0.04
			c-0.16-0.049-0.313-0.098-0.473-0.154c-0.017,0-0.039-0.008-0.064-0.024c-0.135-0.049-0.28-0.097-0.415-0.153
			c-0.04-0.017-0.081-0.034-0.112-0.041c-0.152-0.065-0.304-0.129-0.448-0.193c-0.04-0.009-0.064-0.025-0.095-0.042
			c-0.13-0.057-0.25-0.112-0.377-0.178c-0.04-0.018-0.072-0.032-0.111-0.048c-0.097-0.05-0.193-0.106-0.289-0.155
			c-0.072-0.032-0.137-0.064-0.201-0.104c-0.111-0.065-0.231-0.129-0.35-0.195c-0.033-0.024-0.072-0.048-0.121-0.072
			c-0.152-0.089-0.305-0.186-0.456-0.283c-0.04-0.025-0.081-0.058-0.119-0.081c-0.112-0.073-0.217-0.146-0.329-0.221
			c-0.031-0.022-0.063-0.048-0.103-0.072c-0.106-0.072-0.209-0.153-0.306-0.226c-0.048-0.032-0.096-0.073-0.136-0.105
			c-0.097-0.074-0.192-0.146-0.279-0.22c-0.04-0.032-0.08-0.064-0.12-0.096c-0.121-0.098-0.233-0.195-0.353-0.3
			c-0.009-0.009-0.024-0.024-0.04-0.033c-0.12-0.104-0.241-0.219-0.361-0.332c-0.03-0.032-0.063-0.065-0.104-0.098
			c-0.087-0.088-0.169-0.178-0.256-0.259c-0.038-0.041-0.072-0.073-0.104-0.105c-0.112-0.113-0.217-0.227-0.319-0.348
			c-0.009,0-0.017-0.01-0.017-0.017c-0.112-0.123-0.216-0.244-0.327-0.373c-0.025-0.033-0.058-0.065-0.081-0.098
			c-0.079-0.097-0.161-0.203-0.239-0.3c-0.025-0.031-0.057-0.072-0.081-0.104c-0.097-0.122-0.183-0.242-0.272-0.365
			c-2.432-3.361-3.312-8.013-1.367-11.82L57.736,33.056z"/>
		<path fill-rule="evenodd" clip-rule="evenodd" fill="#FEFEFE" d="M64.603,30.342c-1.601,2.325-1.513,5.453-0.264,7.917
			c0.206,0.413,0.438,0.816,0.705,1.198c0.238,0.348,0.502,0.762,0.823,1.037c0.11,0.13,0.231,0.251,0.359,0.381
			c0.032,0.032,0.063,0.065,0.096,0.098c0.12,0.113,0.24,0.227,0.369,0.34c0,0,0.008,0.009,0.008,0.017c0.007,0,0.007,0,0.007,0
			c0.137,0.122,0.281,0.241,0.425,0.355c0.04,0.025,0.064,0.058,0.104,0.082c0.144,0.113,0.286,0.227,0.439,0.332
			c0.007,0,0.007,0.008,0.016,0.008c0.063,0.048,0.136,0.089,0.209,0.138c0.031,0.015,0.063,0.041,0.096,0.065
			c0.104,0.073,0.217,0.137,0.327,0.201c0.018,0.009,0.032,0.018,0.049,0.025c0.096,0.064,0.191,0.121,0.297,0.17
			c0.031,0.025,0.069,0.04,0.103,0.057c0.064,0.033,0.137,0.073,0.199,0.105c0.017,0.008,0.025,0.008,0.042,0.017
			c0.135,0.073,0.278,0.138,0.424,0.202c0.031,0.017,0.063,0.024,0.096,0.04c0.111,0.049,0.232,0.097,0.345,0.146
			c0.055,0.016,0.104,0.032,0.151,0.057c0.112,0.032,0.217,0.073,0.328,0.105c0.048,0.016,0.096,0.031,0.144,0.049
			c0.152,0.048,0.304,0.112,0.464,0.138c8.257,1.385,10.17-5.056,10.17-5.056c-1.721,2.512-5.049,3.702-8.602,2.771
			c-0.16-0.042-0.313-0.089-0.464-0.138c-0.048-0.008-0.096-0.024-0.145-0.041c-0.112-0.041-0.216-0.08-0.327-0.112
			c-0.048-0.025-0.097-0.042-0.145-0.057c-0.12-0.049-0.24-0.099-0.353-0.146c-0.031-0.017-0.064-0.024-0.096-0.04
			c-0.144-0.064-0.287-0.138-0.432-0.203c-0.072-0.04-0.145-0.073-0.216-0.113c-0.039-0.024-0.088-0.041-0.12-0.064
			c-0.096-0.05-0.192-0.106-0.28-0.154c-0.024-0.017-0.04-0.025-0.064-0.041c-0.112-0.064-0.224-0.13-0.328-0.202
			C69.523,40,69.49,39.977,69.459,39.96c-0.072-0.048-0.144-0.099-0.217-0.146c-0.151-0.104-0.296-0.219-0.447-0.332
			c-0.032-0.024-0.063-0.056-0.096-0.081c-1.562-1.239-2.793-2.94-3.377-4.869c-0.615-1.994-0.479-4.237,0.584-6.06L64.603,30.342z"
			/>
		<path fill-rule="evenodd" clip-rule="evenodd" fill="#FEFEFE" d="M70.379,28.316c-0.943,1.401-1.04,3.152-0.385,4.699
			c0.688,1.653,2.105,2.941,3.754,3.558c0.071,0.024,0.136,0.048,0.208,0.073c0.031,0.008,0.055,0.016,0.088,0.023
			c0.096,0.033,0.191,0.065,0.296,0.09c4.56,0.891,5.792-2.375,6.128-2.854c-1.087,1.58-2.912,1.961-5.144,1.41
			c-0.177-0.04-0.369-0.105-0.537-0.17c-0.215-0.08-0.432-0.17-0.647-0.267c-0.392-0.194-0.769-0.43-1.121-0.697
			c-2-1.54-3.24-4.465-1.935-6.854L70.379,28.316z"/>
	</g>
</g>
<g>
	<rect fill-rule="evenodd" clip-rule="evenodd" fill="#F3D90A" width="52.485" height="53.148"/>
	<path fill-rule="evenodd" clip-rule="evenodd" fill="#0B0B0A" d="M17.832,41.952c0.775,1.398,1.479,2.571,3.174,2.571
		c1.62,0,2.645-0.645,2.645-3.139V24.403h4.937v17.049c0,5.173-3,7.525-7.367,7.525c-3.951,0-6.234-2.068-7.399-4.562L17.832,41.952
		z M35.256,41.52c1.058,1.749,2.431,3.037,4.869,3.037c2.04,0,3.347-1.036,3.347-2.468c0-1.708-1.338-2.318-3.588-3.31l-1.233-0.542
		c-3.563-1.532-5.926-3.457-5.926-7.52c0-3.751,2.82-6.599,7.225-6.599c3.134,0,5.393,1.105,7.011,4.001l-3.836,2.496
		c-0.851-1.54-1.762-2.143-3.175-2.143c-1.445,0-2.363,0.93-2.363,2.143c0,1.499,0.918,2.101,3.034,3.031l1.231,0.535
		c4.192,1.817,6.556,3.676,6.556,7.845c0,4.497-3.489,6.958-8.17,6.958c-4.579,0-7.54-2.21-8.986-5.106L35.256,41.52z"/>
</g>
</svg>
