<?xml version="1.0" encoding="utf-8"?>
<!-- Generator: Adobe Illustrator 16.0.0, SVG Export Plug-In . SVG Version: 6.00 Build 0)  -->
<!DOCTYPE svg PUBLIC "-//W3C//DTD SVG 1.1//EN" "http://www.w3.org/Graphics/SVG/1.1/DTD/svg11.dtd">
<svg version="1.1" id="Layer_1" xmlns="http://www.w3.org/2000/svg" xmlns:xlink="http://www.w3.org/1999/xlink" x="0px" y="0px"
	 width="81.885px" height="80px" viewBox="0 0 81.885 80" enable-background="new 0 0 81.885 80" xml:space="preserve">
<g>
	<linearGradient id="SVGID_1_" gradientUnits="userSpaceOnUse" x1="3.8115" y1="3.041" x2="78.2442" y2="77.4737">
		<stop  offset="0" style="stop-color:#32297C"/>
		<stop  offset="1" style="stop-color:#282761"/>
	</linearGradient>
	<rect x="3.254" y="3.598" opacity="0.95" fill="url(#SVGID_1_)" width="75.547" height="73.318"/>
	<g>
		<g>
			<linearGradient id="SVGID_2_" gradientUnits="userSpaceOnUse" x1="0" y1="0" x2="81.8845" y2="80.0002">
				<stop  offset="0" style="stop-color:#95C8FD"/>
				<stop  offset="1" style="stop-color:#73B4F4"/>
			</linearGradient>
			<path fill="url(#SVGID_2_)" d="M0,0v80h81.885V0H0z M75.374,73.662H6.681V6.51h68.693V73.662z"/>
		</g>
	</g>
	<g>
		<g opacity="0.1">
			<path d="M21.523,24.221c2.211-0.402,5.273-0.704,9.441-0.704c4.52,0,7.834,0.955,9.993,2.762c2.009,1.657,3.315,4.32,3.315,7.483
				c0,3.214-1.004,5.876-2.913,7.684c-2.46,2.461-6.327,3.615-10.696,3.615c-1.155,0-2.21-0.05-3.014-0.2v12.756h-6.127V24.221z
				 M27.65,39.989c0.754,0.2,1.758,0.251,3.014,0.251c4.619,0,7.432-2.26,7.432-6.227c0-3.768-2.611-5.776-6.88-5.776
				c-1.707,0-2.911,0.151-3.565,0.303V39.989z"/>
		</g>
		<g>
			<linearGradient id="SVGID_3_" gradientUnits="userSpaceOnUse" x1="21.3066" y1="39.2412" x2="62.0785" y2="39.2412">
				<stop  offset="0" style="stop-color:#95C8FD"/>
				<stop  offset="1" style="stop-color:#73B4F4"/>
			</linearGradient>
			<path fill="url(#SVGID_3_)" d="M21.523,22.896c2.211-0.402,5.273-0.704,9.441-0.704c4.52,0,7.834,0.955,9.993,2.762
				c2.009,1.657,3.315,4.32,3.315,7.483c0,3.214-1.004,5.876-2.913,7.684c-2.46,2.461-6.327,3.615-10.696,3.615
				c-1.155,0-2.21-0.05-3.014-0.2v12.756h-6.127V22.896z M27.65,38.664c0.754,0.2,1.758,0.251,3.014,0.251
				c4.619,0,7.432-2.26,7.432-6.227c0-3.768-2.611-5.776-6.88-5.776c-1.707,0-2.911,0.151-3.565,0.303V38.664z"/>
		</g>
	</g>
	<g>
		<g opacity="0.1">
			<path d="M46.179,51.941c1.406,0.854,4.068,1.758,6.277,1.758c2.712,0,3.917-1.105,3.917-2.712c0-1.657-1.004-2.512-4.018-3.566
				c-4.771-1.656-6.779-4.269-6.729-7.131c0-4.318,3.567-7.684,9.241-7.684c2.711,0,5.072,0.703,6.478,1.456l-1.204,4.369
				c-1.056-0.603-3.014-1.405-5.173-1.405c-2.21,0-3.415,1.055-3.415,2.561c0,1.558,1.154,2.311,4.27,3.415
				c4.418,1.607,6.477,3.867,6.528,7.482c0,4.419-3.466,7.685-9.944,7.685c-2.963,0-5.625-0.754-7.432-1.758L46.179,51.941z"/>
		</g>
		<g>
			<linearGradient id="SVGID_4_" gradientUnits="userSpaceOnUse" x1="21.3066" y1="44.0625" x2="62.0788" y2="44.0625">
				<stop  offset="0" style="stop-color:#95C8FD"/>
				<stop  offset="1" style="stop-color:#73B4F4"/>
			</linearGradient>
			<path fill="url(#SVGID_4_)" d="M46.179,50.616c1.406,0.854,4.068,1.758,6.277,1.758c2.712,0,3.917-1.105,3.917-2.712
				c0-1.657-1.004-2.512-4.018-3.566c-4.771-1.656-6.779-4.269-6.729-7.131c0-4.318,3.567-7.684,9.241-7.684
				c2.711,0,5.072,0.703,6.478,1.456l-1.204,4.369c-1.056-0.603-3.014-1.405-5.173-1.405c-2.21,0-3.415,1.055-3.415,2.561
				c0,1.558,1.154,2.311,4.27,3.415c4.418,1.607,6.477,3.867,6.528,7.482c0,4.419-3.466,7.685-9.944,7.685
				c-2.963,0-5.625-0.754-7.432-1.758L46.179,50.616z"/>
		</g>
	</g>
</g>
</svg>
