<?xml version="1.0" encoding="utf-8"?>
<!-- Generator: Adobe Illustrator 16.0.0, SVG Export Plug-In . SVG Version: 6.00 Build 0)  -->
<!DOCTYPE svg PUBLIC "-//W3C//DTD SVG 1.1//EN" "http://www.w3.org/Graphics/SVG/1.1/DTD/svg11.dtd">
<svg version="1.1" id="Layer_1" xmlns="http://www.w3.org/2000/svg" xmlns:xlink="http://www.w3.org/1999/xlink" x="0px" y="0px"
	 width="115.581px" height="77px" viewBox="0 0 115.581 77" enable-background="new 0 0 115.581 77" xml:space="preserve">
<g>
	<rect x="13.738" y="3.888" fill="#F7C73C" width="88.584" height="53.502"/>
	<polyline fill="#FAAF3A" points="102.323,3.888 102.323,57.39 13.738,57.39 102.323,3.888 	"/>
	<g>
		<path fill="#E6E6E5" d="M99.614,0H15.967c-2.957,0-5.354,2.214-5.354,4.935v51.071c0,2.729,2.396,4.943,5.354,4.943h83.647
			c2.961,0,5.354-2.215,5.354-4.943V4.935C104.967,2.214,102.575,0,99.614,0z M101.09,56.14h-86.6V4.799h86.6V56.14z"/>
		<polygon fill="#F1F1F1" points="103.1,57.25 66.852,57.25 48.729,57.25 12.478,57.25 0,73.113 48.729,73.113 66.852,73.113 
			115.581,73.113 		"/>
		<path fill="#C7CFD0" d="M115.581,73.113H66.852H48.729H0C0,73.113-0.141,77,8.604,77c5.174,0,24.738,0,39.844,0
			c10.404,0,18.685,0,18.685,0c15.104,0,34.67,0,39.846,0C115.723,77,115.581,73.113,115.581,73.113z"/>
		<polygon fill="#E6E6E5" points="103.1,57.25 67.133,57.25 66.852,57.25 48.729,57.25 48.448,57.25 12.478,57.25 0,73.113 
			48.729,73.113 66.852,73.113 115.581,73.113 		"/>
	</g>
</g>
<g>
	<g>
		<path fill="#E6E6E5" d="M71.065,33.282c1.836,0,3.322,1.488,3.322,3.319v37.08c0,1.83-1.486,3.318-3.322,3.318H16.833
			c-1.836,0-3.321-1.488-3.321-3.318v-37.08c0-1.831,1.485-3.319,3.321-3.319H71.065z"/>
		<rect x="16.211" y="36.473" fill="#00A89C" width="52.854" height="37.337"/>
		<polygon fill="#22B9AA" points="69.065,36.473 16.211,36.473 16.211,73.81 		"/>
		<path fill="#6D6E70" d="M73.221,55.144c0-0.809-0.654-1.459-1.457-1.459c-0.805,0-1.457,0.65-1.457,1.459
			c0,0.799,0.652,1.453,1.457,1.453C72.567,56.597,73.221,55.943,73.221,55.144z"/>
		<path fill="#6D6E70" d="M15.239,58.037c0,0.135-0.112,0.246-0.246,0.246l0,0c-0.136,0-0.246-0.111-0.246-0.246v-5.793
			c0-0.133,0.11-0.246,0.246-0.246l0,0c0.134,0,0.246,0.113,0.246,0.246V58.037z"/>
	</g>
</g>
<g>
	<g>
		<path fill="#E6E6E5" d="M27.361,74.835c0,1.195-0.814,2.164-1.818,2.164H1.932c-1.002,0-1.815-0.969-1.815-2.164V28.526
			c0-1.194,0.813-2.164,1.815-2.164h23.611c1.004,0,1.818,0.97,1.818,2.164V74.835z"/>
		<rect x="1.371" y="30.125" fill="#CBDB2B" width="24.734" height="39.789"/>
		<polygon fill="#D8DF25" points="26.105,30.125 1.371,30.125 1.371,69.914 		"/>
		<circle fill="#6D6E70" cx="13.74" cy="73.146" r="2.412"/>
		<path fill="#6D6E70" d="M22.155,28.459c0,0.124-0.101,0.226-0.223,0.226h-3.888c-0.125,0-0.223-0.102-0.223-0.226l0,0
			c0-0.123,0.098-0.223,0.223-0.223h3.888C22.055,28.236,22.155,28.336,22.155,28.459L22.155,28.459z"/>
		<path fill="#6D6E70" d="M23.136,28.459c0,0.225-0.18,0.401-0.399,0.401l0,0c-0.224,0-0.401-0.177-0.401-0.401l0,0
			c0-0.219,0.178-0.4,0.401-0.4l0,0C22.956,28.059,23.136,28.24,23.136,28.459L23.136,28.459z"/>
	</g>
</g>
</svg>
